<?xml version="1.0" encoding="utf-8" standalone="no"?>
<!DOCTYPE svg PUBLIC "-//W3C//DTD SVG 1.1//EN"
  "http://www.w3.org/Graphics/SVG/1.1/DTD/svg11.dtd">
<svg xmlns:xlink="http://www.w3.org/1999/xlink" width="720pt" height="432pt" viewBox="0 0 720 432" xmlns="http://www.w3.org/2000/svg" version="1.1">
 <metadata>
  <rdf:RDF xmlns:dc="http://purl.org/dc/elements/1.1/" xmlns:cc="http://creativecommons.org/ns#" xmlns:rdf="http://www.w3.org/1999/02/22-rdf-syntax-ns#">
   <cc:Work>
    <dc:type rdf:resource="http://purl.org/dc/dcmitype/StillImage"/>
    <dc:date>2024-08-25T16:04:39.758522</dc:date>
    <dc:format>image/svg+xml</dc:format>
    <dc:creator>
     <cc:Agent>
      <dc:title>Matplotlib v3.6.3, https://matplotlib.org/</dc:title>
     </cc:Agent>
    </dc:creator>
   </cc:Work>
  </rdf:RDF>
 </metadata>
 <defs>
  <style type="text/css">*{stroke-linejoin: round; stroke-linecap: butt}</style>
 </defs>
 <g id="figure_1">
  <g id="patch_1">
   <path d="M 0 432 
L 720 432 
L 720 0 
L 0 0 
z
" style="fill: #ffffff"/>
  </g>
  <g id="axes_1">
   <g id="patch_2">
    <path d="M 90 384.48 
L 648 384.48 
L 648 51.84 
L 90 51.84 
z
" style="fill: #ffffff"/>
   </g>
   <g id="matplotlib.axis_1">
    <g id="xtick_1">
     <g id="line2d_1">
      <path d="M 115.363636 384.48 
L 115.363636 51.84 
" clip-path="url(#pb2b4fe6215)" style="fill: none; stroke-dasharray: 2.22,0.96; stroke-dashoffset: 0; stroke: #b0b0b0; stroke-opacity: 0.7; stroke-width: 0.6"/>
     </g>
     <g id="line2d_2">
      <defs>
       <path id="m49a8ba9c88" d="M 0 0 
L 0 -3.5 
" style="stroke: #1a1a1a; stroke-width: 0.8"/>
      </defs>
      <g>
       <use xlink:href="#m49a8ba9c88" x="115.363636" y="384.48" style="fill: #1a1a1a; stroke: #1a1a1a; stroke-width: 0.8"/>
      </g>
     </g>
     <g id="text_1">
      <!-- −2.0 -->
      <g style="fill: #1a1a1a" transform="translate(100.793949 397.098125) scale(0.12 -0.12)">
       <defs>
        <path id="DejaVuSans-2212" d="M 678 2272 
L 4684 2272 
L 4684 1741 
L 678 1741 
L 678 2272 
z
" transform="scale(0.015625)"/>
        <path id="DejaVuSans-32" d="M 1228 531 
L 3431 531 
L 3431 0 
L 469 0 
L 469 531 
Q 828 903 1448 1529 
Q 2069 2156 2228 2338 
Q 2531 2678 2651 2914 
Q 2772 3150 2772 3378 
Q 2772 3750 2511 3984 
Q 2250 4219 1831 4219 
Q 1534 4219 1204 4116 
Q 875 4013 500 3803 
L 500 4441 
Q 881 4594 1212 4672 
Q 1544 4750 1819 4750 
Q 2544 4750 2975 4387 
Q 3406 4025 3406 3419 
Q 3406 3131 3298 2873 
Q 3191 2616 2906 2266 
Q 2828 2175 2409 1742 
Q 1991 1309 1228 531 
z
" transform="scale(0.015625)"/>
        <path id="DejaVuSans-2e" d="M 684 794 
L 1344 794 
L 1344 0 
L 684 0 
L 684 794 
z
" transform="scale(0.015625)"/>
        <path id="DejaVuSans-30" d="M 2034 4250 
Q 1547 4250 1301 3770 
Q 1056 3291 1056 2328 
Q 1056 1369 1301 889 
Q 1547 409 2034 409 
Q 2525 409 2770 889 
Q 3016 1369 3016 2328 
Q 3016 3291 2770 3770 
Q 2525 4250 2034 4250 
z
M 2034 4750 
Q 2819 4750 3233 4129 
Q 3647 3509 3647 2328 
Q 3647 1150 3233 529 
Q 2819 -91 2034 -91 
Q 1250 -91 836 529 
Q 422 1150 422 2328 
Q 422 3509 836 4129 
Q 1250 4750 2034 4750 
z
" transform="scale(0.015625)"/>
       </defs>
       <use xlink:href="#DejaVuSans-2212"/>
       <use xlink:href="#DejaVuSans-32" x="83.789062"/>
       <use xlink:href="#DejaVuSans-2e" x="147.412109"/>
       <use xlink:href="#DejaVuSans-30" x="179.199219"/>
      </g>
     </g>
    </g>
    <g id="xtick_2">
     <g id="line2d_3">
      <path d="M 178.772727 384.48 
L 178.772727 51.84 
" clip-path="url(#pb2b4fe6215)" style="fill: none; stroke-dasharray: 2.22,0.96; stroke-dashoffset: 0; stroke: #b0b0b0; stroke-opacity: 0.7; stroke-width: 0.6"/>
     </g>
     <g id="line2d_4">
      <g>
       <use xlink:href="#m49a8ba9c88" x="178.772727" y="384.48" style="fill: #1a1a1a; stroke: #1a1a1a; stroke-width: 0.8"/>
      </g>
     </g>
     <g id="text_2">
      <!-- −1.5 -->
      <g style="fill: #1a1a1a" transform="translate(164.20304 397.098125) scale(0.12 -0.12)">
       <defs>
        <path id="DejaVuSans-31" d="M 794 531 
L 1825 531 
L 1825 4091 
L 703 3866 
L 703 4441 
L 1819 4666 
L 2450 4666 
L 2450 531 
L 3481 531 
L 3481 0 
L 794 0 
L 794 531 
z
" transform="scale(0.015625)"/>
        <path id="DejaVuSans-35" d="M 691 4666 
L 3169 4666 
L 3169 4134 
L 1269 4134 
L 1269 2991 
Q 1406 3038 1543 3061 
Q 1681 3084 1819 3084 
Q 2600 3084 3056 2656 
Q 3513 2228 3513 1497 
Q 3513 744 3044 326 
Q 2575 -91 1722 -91 
Q 1428 -91 1123 -41 
Q 819 9 494 109 
L 494 744 
Q 775 591 1075 516 
Q 1375 441 1709 441 
Q 2250 441 2565 725 
Q 2881 1009 2881 1497 
Q 2881 1984 2565 2268 
Q 2250 2553 1709 2553 
Q 1456 2553 1204 2497 
Q 953 2441 691 2322 
L 691 4666 
z
" transform="scale(0.015625)"/>
       </defs>
       <use xlink:href="#DejaVuSans-2212"/>
       <use xlink:href="#DejaVuSans-31" x="83.789062"/>
       <use xlink:href="#DejaVuSans-2e" x="147.412109"/>
       <use xlink:href="#DejaVuSans-35" x="179.199219"/>
      </g>
     </g>
    </g>
    <g id="xtick_3">
     <g id="line2d_5">
      <path d="M 242.181818 384.48 
L 242.181818 51.84 
" clip-path="url(#pb2b4fe6215)" style="fill: none; stroke-dasharray: 2.22,0.96; stroke-dashoffset: 0; stroke: #b0b0b0; stroke-opacity: 0.7; stroke-width: 0.6"/>
     </g>
     <g id="line2d_6">
      <g>
       <use xlink:href="#m49a8ba9c88" x="242.181818" y="384.48" style="fill: #1a1a1a; stroke: #1a1a1a; stroke-width: 0.8"/>
      </g>
     </g>
     <g id="text_3">
      <!-- −1.0 -->
      <g style="fill: #1a1a1a" transform="translate(227.612131 397.098125) scale(0.12 -0.12)">
       <use xlink:href="#DejaVuSans-2212"/>
       <use xlink:href="#DejaVuSans-31" x="83.789062"/>
       <use xlink:href="#DejaVuSans-2e" x="147.412109"/>
       <use xlink:href="#DejaVuSans-30" x="179.199219"/>
      </g>
     </g>
    </g>
    <g id="xtick_4">
     <g id="line2d_7">
      <path d="M 305.590909 384.48 
L 305.590909 51.84 
" clip-path="url(#pb2b4fe6215)" style="fill: none; stroke-dasharray: 2.22,0.96; stroke-dashoffset: 0; stroke: #b0b0b0; stroke-opacity: 0.7; stroke-width: 0.6"/>
     </g>
     <g id="line2d_8">
      <g>
       <use xlink:href="#m49a8ba9c88" x="305.590909" y="384.48" style="fill: #1a1a1a; stroke: #1a1a1a; stroke-width: 0.8"/>
      </g>
     </g>
     <g id="text_4">
      <!-- −0.5 -->
      <g style="fill: #1a1a1a" transform="translate(291.021222 397.098125) scale(0.12 -0.12)">
       <use xlink:href="#DejaVuSans-2212"/>
       <use xlink:href="#DejaVuSans-30" x="83.789062"/>
       <use xlink:href="#DejaVuSans-2e" x="147.412109"/>
       <use xlink:href="#DejaVuSans-35" x="179.199219"/>
      </g>
     </g>
    </g>
    <g id="xtick_5">
     <g id="line2d_9">
      <path d="M 369 384.48 
L 369 51.84 
" clip-path="url(#pb2b4fe6215)" style="fill: none; stroke-dasharray: 2.22,0.96; stroke-dashoffset: 0; stroke: #b0b0b0; stroke-opacity: 0.7; stroke-width: 0.6"/>
     </g>
     <g id="line2d_10">
      <g>
       <use xlink:href="#m49a8ba9c88" x="369" y="384.48" style="fill: #1a1a1a; stroke: #1a1a1a; stroke-width: 0.8"/>
      </g>
     </g>
     <g id="text_5">
      <!-- 0.0 -->
      <g style="fill: #1a1a1a" transform="translate(359.458125 397.098125) scale(0.12 -0.12)">
       <use xlink:href="#DejaVuSans-30"/>
       <use xlink:href="#DejaVuSans-2e" x="63.623047"/>
       <use xlink:href="#DejaVuSans-30" x="95.410156"/>
      </g>
     </g>
    </g>
    <g id="xtick_6">
     <g id="line2d_11">
      <path d="M 432.409091 384.48 
L 432.409091 51.84 
" clip-path="url(#pb2b4fe6215)" style="fill: none; stroke-dasharray: 2.22,0.96; stroke-dashoffset: 0; stroke: #b0b0b0; stroke-opacity: 0.7; stroke-width: 0.6"/>
     </g>
     <g id="line2d_12">
      <g>
       <use xlink:href="#m49a8ba9c88" x="432.409091" y="384.48" style="fill: #1a1a1a; stroke: #1a1a1a; stroke-width: 0.8"/>
      </g>
     </g>
     <g id="text_6">
      <!-- 0.5 -->
      <g style="fill: #1a1a1a" transform="translate(422.867216 397.098125) scale(0.12 -0.12)">
       <use xlink:href="#DejaVuSans-30"/>
       <use xlink:href="#DejaVuSans-2e" x="63.623047"/>
       <use xlink:href="#DejaVuSans-35" x="95.410156"/>
      </g>
     </g>
    </g>
    <g id="xtick_7">
     <g id="line2d_13">
      <path d="M 495.818182 384.48 
L 495.818182 51.84 
" clip-path="url(#pb2b4fe6215)" style="fill: none; stroke-dasharray: 2.22,0.96; stroke-dashoffset: 0; stroke: #b0b0b0; stroke-opacity: 0.7; stroke-width: 0.6"/>
     </g>
     <g id="line2d_14">
      <g>
       <use xlink:href="#m49a8ba9c88" x="495.818182" y="384.48" style="fill: #1a1a1a; stroke: #1a1a1a; stroke-width: 0.8"/>
      </g>
     </g>
     <g id="text_7">
      <!-- 1.0 -->
      <g style="fill: #1a1a1a" transform="translate(486.276307 397.098125) scale(0.12 -0.12)">
       <use xlink:href="#DejaVuSans-31"/>
       <use xlink:href="#DejaVuSans-2e" x="63.623047"/>
       <use xlink:href="#DejaVuSans-30" x="95.410156"/>
      </g>
     </g>
    </g>
    <g id="xtick_8">
     <g id="line2d_15">
      <path d="M 559.227273 384.48 
L 559.227273 51.84 
" clip-path="url(#pb2b4fe6215)" style="fill: none; stroke-dasharray: 2.22,0.96; stroke-dashoffset: 0; stroke: #b0b0b0; stroke-opacity: 0.7; stroke-width: 0.6"/>
     </g>
     <g id="line2d_16">
      <g>
       <use xlink:href="#m49a8ba9c88" x="559.227273" y="384.48" style="fill: #1a1a1a; stroke: #1a1a1a; stroke-width: 0.8"/>
      </g>
     </g>
     <g id="text_8">
      <!-- 1.5 -->
      <g style="fill: #1a1a1a" transform="translate(549.685398 397.098125) scale(0.12 -0.12)">
       <use xlink:href="#DejaVuSans-31"/>
       <use xlink:href="#DejaVuSans-2e" x="63.623047"/>
       <use xlink:href="#DejaVuSans-35" x="95.410156"/>
      </g>
     </g>
    </g>
    <g id="xtick_9">
     <g id="line2d_17">
      <path d="M 622.636364 384.48 
L 622.636364 51.84 
" clip-path="url(#pb2b4fe6215)" style="fill: none; stroke-dasharray: 2.22,0.96; stroke-dashoffset: 0; stroke: #b0b0b0; stroke-opacity: 0.7; stroke-width: 0.6"/>
     </g>
     <g id="line2d_18">
      <g>
       <use xlink:href="#m49a8ba9c88" x="622.636364" y="384.48" style="fill: #1a1a1a; stroke: #1a1a1a; stroke-width: 0.8"/>
      </g>
     </g>
     <g id="text_9">
      <!-- 2.0 -->
      <g style="fill: #1a1a1a" transform="translate(613.094489 397.098125) scale(0.12 -0.12)">
       <use xlink:href="#DejaVuSans-32"/>
       <use xlink:href="#DejaVuSans-2e" x="63.623047"/>
       <use xlink:href="#DejaVuSans-30" x="95.410156"/>
      </g>
     </g>
    </g>
    <g id="text_10">
     <!-- Height (h) -->
     <g style="fill: #1a1a1a" transform="translate(338.774063 412.711875) scale(0.12 -0.12)">
      <defs>
       <path id="DejaVuSans-48" d="M 628 4666 
L 1259 4666 
L 1259 2753 
L 3553 2753 
L 3553 4666 
L 4184 4666 
L 4184 0 
L 3553 0 
L 3553 2222 
L 1259 2222 
L 1259 0 
L 628 0 
L 628 4666 
z
" transform="scale(0.015625)"/>
       <path id="DejaVuSans-65" d="M 3597 1894 
L 3597 1613 
L 953 1613 
Q 991 1019 1311 708 
Q 1631 397 2203 397 
Q 2534 397 2845 478 
Q 3156 559 3463 722 
L 3463 178 
Q 3153 47 2828 -22 
Q 2503 -91 2169 -91 
Q 1331 -91 842 396 
Q 353 884 353 1716 
Q 353 2575 817 3079 
Q 1281 3584 2069 3584 
Q 2775 3584 3186 3129 
Q 3597 2675 3597 1894 
z
M 3022 2063 
Q 3016 2534 2758 2815 
Q 2500 3097 2075 3097 
Q 1594 3097 1305 2825 
Q 1016 2553 972 2059 
L 3022 2063 
z
" transform="scale(0.015625)"/>
       <path id="DejaVuSans-69" d="M 603 3500 
L 1178 3500 
L 1178 0 
L 603 0 
L 603 3500 
z
M 603 4863 
L 1178 4863 
L 1178 4134 
L 603 4134 
L 603 4863 
z
" transform="scale(0.015625)"/>
       <path id="DejaVuSans-67" d="M 2906 1791 
Q 2906 2416 2648 2759 
Q 2391 3103 1925 3103 
Q 1463 3103 1205 2759 
Q 947 2416 947 1791 
Q 947 1169 1205 825 
Q 1463 481 1925 481 
Q 2391 481 2648 825 
Q 2906 1169 2906 1791 
z
M 3481 434 
Q 3481 -459 3084 -895 
Q 2688 -1331 1869 -1331 
Q 1566 -1331 1297 -1286 
Q 1028 -1241 775 -1147 
L 775 -588 
Q 1028 -725 1275 -790 
Q 1522 -856 1778 -856 
Q 2344 -856 2625 -561 
Q 2906 -266 2906 331 
L 2906 616 
Q 2728 306 2450 153 
Q 2172 0 1784 0 
Q 1141 0 747 490 
Q 353 981 353 1791 
Q 353 2603 747 3093 
Q 1141 3584 1784 3584 
Q 2172 3584 2450 3431 
Q 2728 3278 2906 2969 
L 2906 3500 
L 3481 3500 
L 3481 434 
z
" transform="scale(0.015625)"/>
       <path id="DejaVuSans-68" d="M 3513 2113 
L 3513 0 
L 2938 0 
L 2938 2094 
Q 2938 2591 2744 2837 
Q 2550 3084 2163 3084 
Q 1697 3084 1428 2787 
Q 1159 2491 1159 1978 
L 1159 0 
L 581 0 
L 581 4863 
L 1159 4863 
L 1159 2956 
Q 1366 3272 1645 3428 
Q 1925 3584 2291 3584 
Q 2894 3584 3203 3211 
Q 3513 2838 3513 2113 
z
" transform="scale(0.015625)"/>
       <path id="DejaVuSans-74" d="M 1172 4494 
L 1172 3500 
L 2356 3500 
L 2356 3053 
L 1172 3053 
L 1172 1153 
Q 1172 725 1289 603 
Q 1406 481 1766 481 
L 2356 481 
L 2356 0 
L 1766 0 
Q 1100 0 847 248 
Q 594 497 594 1153 
L 594 3053 
L 172 3053 
L 172 3500 
L 594 3500 
L 594 4494 
L 1172 4494 
z
" transform="scale(0.015625)"/>
       <path id="DejaVuSans-20" transform="scale(0.015625)"/>
       <path id="DejaVuSans-28" d="M 1984 4856 
Q 1566 4138 1362 3434 
Q 1159 2731 1159 2009 
Q 1159 1288 1364 580 
Q 1569 -128 1984 -844 
L 1484 -844 
Q 1016 -109 783 600 
Q 550 1309 550 2009 
Q 550 2706 781 3412 
Q 1013 4119 1484 4856 
L 1984 4856 
z
" transform="scale(0.015625)"/>
       <path id="DejaVuSans-29" d="M 513 4856 
L 1013 4856 
Q 1481 4119 1714 3412 
Q 1947 2706 1947 2009 
Q 1947 1309 1714 600 
Q 1481 -109 1013 -844 
L 513 -844 
Q 928 -128 1133 580 
Q 1338 1288 1338 2009 
Q 1338 2731 1133 3434 
Q 928 4138 513 4856 
z
" transform="scale(0.015625)"/>
      </defs>
      <use xlink:href="#DejaVuSans-48"/>
      <use xlink:href="#DejaVuSans-65" x="75.195312"/>
      <use xlink:href="#DejaVuSans-69" x="136.71875"/>
      <use xlink:href="#DejaVuSans-67" x="164.501953"/>
      <use xlink:href="#DejaVuSans-68" x="227.978516"/>
      <use xlink:href="#DejaVuSans-74" x="291.357422"/>
      <use xlink:href="#DejaVuSans-20" x="330.566406"/>
      <use xlink:href="#DejaVuSans-28" x="362.353516"/>
      <use xlink:href="#DejaVuSans-68" x="401.367188"/>
      <use xlink:href="#DejaVuSans-29" x="464.746094"/>
     </g>
    </g>
   </g>
   <g id="matplotlib.axis_2">
    <g id="ytick_1">
     <g id="line2d_19">
      <path d="M 90 369.36 
L 648 369.36 
" clip-path="url(#pb2b4fe6215)" style="fill: none; stroke-dasharray: 2.22,0.96; stroke-dashoffset: 0; stroke: #b0b0b0; stroke-opacity: 0.7; stroke-width: 0.6"/>
     </g>
     <g id="line2d_20">
      <defs>
       <path id="m183f666899" d="M 0 0 
L 3.5 0 
" style="stroke: #1a1a1a; stroke-width: 0.8"/>
      </defs>
      <g>
       <use xlink:href="#m183f666899" x="90" y="369.36" style="fill: #1a1a1a; stroke: #1a1a1a; stroke-width: 0.8"/>
      </g>
     </g>
     <g id="text_11">
      <!-- 0.00 -->
      <g style="fill: #1a1a1a" transform="translate(59.78125 373.919062) scale(0.12 -0.12)">
       <use xlink:href="#DejaVuSans-30"/>
       <use xlink:href="#DejaVuSans-2e" x="63.623047"/>
       <use xlink:href="#DejaVuSans-30" x="95.410156"/>
       <use xlink:href="#DejaVuSans-30" x="159.033203"/>
      </g>
     </g>
    </g>
    <g id="ytick_2">
     <g id="line2d_21">
      <path d="M 90 331.559881 
L 648 331.559881 
" clip-path="url(#pb2b4fe6215)" style="fill: none; stroke-dasharray: 2.22,0.96; stroke-dashoffset: 0; stroke: #b0b0b0; stroke-opacity: 0.7; stroke-width: 0.6"/>
     </g>
     <g id="line2d_22">
      <g>
       <use xlink:href="#m183f666899" x="90" y="331.559881" style="fill: #1a1a1a; stroke: #1a1a1a; stroke-width: 0.8"/>
      </g>
     </g>
     <g id="text_12">
      <!-- 0.25 -->
      <g style="fill: #1a1a1a" transform="translate(59.78125 336.118944) scale(0.12 -0.12)">
       <use xlink:href="#DejaVuSans-30"/>
       <use xlink:href="#DejaVuSans-2e" x="63.623047"/>
       <use xlink:href="#DejaVuSans-32" x="95.410156"/>
       <use xlink:href="#DejaVuSans-35" x="159.033203"/>
      </g>
     </g>
    </g>
    <g id="ytick_3">
     <g id="line2d_23">
      <path d="M 90 293.759763 
L 648 293.759763 
" clip-path="url(#pb2b4fe6215)" style="fill: none; stroke-dasharray: 2.22,0.96; stroke-dashoffset: 0; stroke: #b0b0b0; stroke-opacity: 0.7; stroke-width: 0.6"/>
     </g>
     <g id="line2d_24">
      <g>
       <use xlink:href="#m183f666899" x="90" y="293.759763" style="fill: #1a1a1a; stroke: #1a1a1a; stroke-width: 0.8"/>
      </g>
     </g>
     <g id="text_13">
      <!-- 0.50 -->
      <g style="fill: #1a1a1a" transform="translate(59.78125 298.318825) scale(0.12 -0.12)">
       <use xlink:href="#DejaVuSans-30"/>
       <use xlink:href="#DejaVuSans-2e" x="63.623047"/>
       <use xlink:href="#DejaVuSans-35" x="95.410156"/>
       <use xlink:href="#DejaVuSans-30" x="159.033203"/>
      </g>
     </g>
    </g>
    <g id="ytick_4">
     <g id="line2d_25">
      <path d="M 90 255.959644 
L 648 255.959644 
" clip-path="url(#pb2b4fe6215)" style="fill: none; stroke-dasharray: 2.22,0.96; stroke-dashoffset: 0; stroke: #b0b0b0; stroke-opacity: 0.7; stroke-width: 0.6"/>
     </g>
     <g id="line2d_26">
      <g>
       <use xlink:href="#m183f666899" x="90" y="255.959644" style="fill: #1a1a1a; stroke: #1a1a1a; stroke-width: 0.8"/>
      </g>
     </g>
     <g id="text_14">
      <!-- 0.75 -->
      <g style="fill: #1a1a1a" transform="translate(59.78125 260.518706) scale(0.12 -0.12)">
       <defs>
        <path id="DejaVuSans-37" d="M 525 4666 
L 3525 4666 
L 3525 4397 
L 1831 0 
L 1172 0 
L 2766 4134 
L 525 4134 
L 525 4666 
z
" transform="scale(0.015625)"/>
       </defs>
       <use xlink:href="#DejaVuSans-30"/>
       <use xlink:href="#DejaVuSans-2e" x="63.623047"/>
       <use xlink:href="#DejaVuSans-37" x="95.410156"/>
       <use xlink:href="#DejaVuSans-35" x="159.033203"/>
      </g>
     </g>
    </g>
    <g id="ytick_5">
     <g id="line2d_27">
      <path d="M 90 218.159525 
L 648 218.159525 
" clip-path="url(#pb2b4fe6215)" style="fill: none; stroke-dasharray: 2.22,0.96; stroke-dashoffset: 0; stroke: #b0b0b0; stroke-opacity: 0.7; stroke-width: 0.6"/>
     </g>
     <g id="line2d_28">
      <g>
       <use xlink:href="#m183f666899" x="90" y="218.159525" style="fill: #1a1a1a; stroke: #1a1a1a; stroke-width: 0.8"/>
      </g>
     </g>
     <g id="text_15">
      <!-- 1.00 -->
      <g style="fill: #1a1a1a" transform="translate(59.78125 222.718588) scale(0.12 -0.12)">
       <use xlink:href="#DejaVuSans-31"/>
       <use xlink:href="#DejaVuSans-2e" x="63.623047"/>
       <use xlink:href="#DejaVuSans-30" x="95.410156"/>
       <use xlink:href="#DejaVuSans-30" x="159.033203"/>
      </g>
     </g>
    </g>
    <g id="ytick_6">
     <g id="line2d_29">
      <path d="M 90 180.359406 
L 648 180.359406 
" clip-path="url(#pb2b4fe6215)" style="fill: none; stroke-dasharray: 2.22,0.96; stroke-dashoffset: 0; stroke: #b0b0b0; stroke-opacity: 0.7; stroke-width: 0.6"/>
     </g>
     <g id="line2d_30">
      <g>
       <use xlink:href="#m183f666899" x="90" y="180.359406" style="fill: #1a1a1a; stroke: #1a1a1a; stroke-width: 0.8"/>
      </g>
     </g>
     <g id="text_16">
      <!-- 1.25 -->
      <g style="fill: #1a1a1a" transform="translate(59.78125 184.918469) scale(0.12 -0.12)">
       <use xlink:href="#DejaVuSans-31"/>
       <use xlink:href="#DejaVuSans-2e" x="63.623047"/>
       <use xlink:href="#DejaVuSans-32" x="95.410156"/>
       <use xlink:href="#DejaVuSans-35" x="159.033203"/>
      </g>
     </g>
    </g>
    <g id="ytick_7">
     <g id="line2d_31">
      <path d="M 90 142.559288 
L 648 142.559288 
" clip-path="url(#pb2b4fe6215)" style="fill: none; stroke-dasharray: 2.22,0.96; stroke-dashoffset: 0; stroke: #b0b0b0; stroke-opacity: 0.7; stroke-width: 0.6"/>
     </g>
     <g id="line2d_32">
      <g>
       <use xlink:href="#m183f666899" x="90" y="142.559288" style="fill: #1a1a1a; stroke: #1a1a1a; stroke-width: 0.8"/>
      </g>
     </g>
     <g id="text_17">
      <!-- 1.50 -->
      <g style="fill: #1a1a1a" transform="translate(59.78125 147.11835) scale(0.12 -0.12)">
       <use xlink:href="#DejaVuSans-31"/>
       <use xlink:href="#DejaVuSans-2e" x="63.623047"/>
       <use xlink:href="#DejaVuSans-35" x="95.410156"/>
       <use xlink:href="#DejaVuSans-30" x="159.033203"/>
      </g>
     </g>
    </g>
    <g id="ytick_8">
     <g id="line2d_33">
      <path d="M 90 104.759169 
L 648 104.759169 
" clip-path="url(#pb2b4fe6215)" style="fill: none; stroke-dasharray: 2.22,0.96; stroke-dashoffset: 0; stroke: #b0b0b0; stroke-opacity: 0.7; stroke-width: 0.6"/>
     </g>
     <g id="line2d_34">
      <g>
       <use xlink:href="#m183f666899" x="90" y="104.759169" style="fill: #1a1a1a; stroke: #1a1a1a; stroke-width: 0.8"/>
      </g>
     </g>
     <g id="text_18">
      <!-- 1.75 -->
      <g style="fill: #1a1a1a" transform="translate(59.78125 109.318231) scale(0.12 -0.12)">
       <use xlink:href="#DejaVuSans-31"/>
       <use xlink:href="#DejaVuSans-2e" x="63.623047"/>
       <use xlink:href="#DejaVuSans-37" x="95.410156"/>
       <use xlink:href="#DejaVuSans-35" x="159.033203"/>
      </g>
     </g>
    </g>
    <g id="ytick_9">
     <g id="line2d_35">
      <path d="M 90 66.95905 
L 648 66.95905 
" clip-path="url(#pb2b4fe6215)" style="fill: none; stroke-dasharray: 2.22,0.96; stroke-dashoffset: 0; stroke: #b0b0b0; stroke-opacity: 0.7; stroke-width: 0.6"/>
     </g>
     <g id="line2d_36">
      <g>
       <use xlink:href="#m183f666899" x="90" y="66.95905" style="fill: #1a1a1a; stroke: #1a1a1a; stroke-width: 0.8"/>
      </g>
     </g>
     <g id="text_19">
      <!-- 2.00 -->
      <g style="fill: #1a1a1a" transform="translate(59.78125 71.518113) scale(0.12 -0.12)">
       <use xlink:href="#DejaVuSans-32"/>
       <use xlink:href="#DejaVuSans-2e" x="63.623047"/>
       <use xlink:href="#DejaVuSans-30" x="95.410156"/>
       <use xlink:href="#DejaVuSans-30" x="159.033203"/>
      </g>
     </g>
    </g>
    <g id="text_20">
     <!-- Cut Length (L) -->
     <g style="fill: #1a1a1a" transform="translate(53.285625 261.039375) rotate(-90) scale(0.12 -0.12)">
      <defs>
       <path id="DejaVuSans-43" d="M 4122 4306 
L 4122 3641 
Q 3803 3938 3442 4084 
Q 3081 4231 2675 4231 
Q 1875 4231 1450 3742 
Q 1025 3253 1025 2328 
Q 1025 1406 1450 917 
Q 1875 428 2675 428 
Q 3081 428 3442 575 
Q 3803 722 4122 1019 
L 4122 359 
Q 3791 134 3420 21 
Q 3050 -91 2638 -91 
Q 1578 -91 968 557 
Q 359 1206 359 2328 
Q 359 3453 968 4101 
Q 1578 4750 2638 4750 
Q 3056 4750 3426 4639 
Q 3797 4528 4122 4306 
z
" transform="scale(0.015625)"/>
       <path id="DejaVuSans-75" d="M 544 1381 
L 544 3500 
L 1119 3500 
L 1119 1403 
Q 1119 906 1312 657 
Q 1506 409 1894 409 
Q 2359 409 2629 706 
Q 2900 1003 2900 1516 
L 2900 3500 
L 3475 3500 
L 3475 0 
L 2900 0 
L 2900 538 
Q 2691 219 2414 64 
Q 2138 -91 1772 -91 
Q 1169 -91 856 284 
Q 544 659 544 1381 
z
M 1991 3584 
L 1991 3584 
z
" transform="scale(0.015625)"/>
       <path id="DejaVuSans-4c" d="M 628 4666 
L 1259 4666 
L 1259 531 
L 3531 531 
L 3531 0 
L 628 0 
L 628 4666 
z
" transform="scale(0.015625)"/>
       <path id="DejaVuSans-6e" d="M 3513 2113 
L 3513 0 
L 2938 0 
L 2938 2094 
Q 2938 2591 2744 2837 
Q 2550 3084 2163 3084 
Q 1697 3084 1428 2787 
Q 1159 2491 1159 1978 
L 1159 0 
L 581 0 
L 581 3500 
L 1159 3500 
L 1159 2956 
Q 1366 3272 1645 3428 
Q 1925 3584 2291 3584 
Q 2894 3584 3203 3211 
Q 3513 2838 3513 2113 
z
" transform="scale(0.015625)"/>
      </defs>
      <use xlink:href="#DejaVuSans-43"/>
      <use xlink:href="#DejaVuSans-75" x="69.824219"/>
      <use xlink:href="#DejaVuSans-74" x="133.203125"/>
      <use xlink:href="#DejaVuSans-20" x="172.412109"/>
      <use xlink:href="#DejaVuSans-4c" x="204.199219"/>
      <use xlink:href="#DejaVuSans-65" x="258.162109"/>
      <use xlink:href="#DejaVuSans-6e" x="319.685547"/>
      <use xlink:href="#DejaVuSans-67" x="383.064453"/>
      <use xlink:href="#DejaVuSans-74" x="446.541016"/>
      <use xlink:href="#DejaVuSans-68" x="485.75"/>
      <use xlink:href="#DejaVuSans-20" x="549.128906"/>
      <use xlink:href="#DejaVuSans-28" x="580.916016"/>
      <use xlink:href="#DejaVuSans-4c" x="619.929688"/>
      <use xlink:href="#DejaVuSans-29" x="675.642578"/>
     </g>
    </g>
   </g>
   <g id="line2d_37">
    <path d="M 242.181818 369.36 
L 242.817498 339.12 
L 243.453178 326.647942 
L 244.724539 309.108371 
L 245.995899 295.754181 
L 247.267259 284.583863 
L 249.174299 270.333266 
L 251.08134 258.075512 
L 252.98838 247.209178 
L 254.89542 237.39011 
L 257.438141 225.559133 
L 259.980861 214.86792 
L 262.523582 205.093777 
L 265.066302 196.081447 
L 268.244703 185.71729 
L 271.423103 176.204749 
L 274.601504 167.423437 
L 277.779904 159.281637 
L 280.958305 151.707571 
L 284.136705 144.643824 
L 287.315106 138.043641 
L 291.129187 130.681363 
L 294.943267 123.876199 
L 298.757348 117.582973 
L 302.571429 111.76416 
L 306.385509 106.388266 
L 310.19959 101.42863 
L 314.013671 96.862521 
L 317.827751 92.670456 
L 321.641832 88.835667 
L 325.455913 85.34368 
L 329.269993 82.181991 
L 333.084074 79.339797 
L 336.898154 76.807786 
L 340.712235 74.577965 
L 344.526316 72.643521 
L 348.340396 70.998708 
L 352.154477 69.638759 
L 355.332878 68.720259 
L 358.511278 67.995098 
L 361.689679 67.461884 
L 364.868079 67.1196 
L 368.04648 66.967598 
L 371.22488 67.005591 
L 374.403281 67.233651 
L 377.581681 67.652209 
L 380.760082 68.262059 
L 383.938483 69.064367 
L 387.116883 70.06068 
L 390.295284 71.252944 
L 394.109364 72.945672 
L 397.923445 74.928919 
L 401.737526 77.208602 
L 405.551606 79.791721 
L 409.365687 82.68648 
L 413.179768 85.902425 
L 416.993848 89.450628 
L 420.807929 93.3439 
L 424.62201 97.597074 
L 428.43609 102.227337 
L 432.250171 107.254675 
L 436.064252 112.702419 
L 439.878332 118.597967 
L 443.692413 124.973727 
L 447.506494 131.86837 
L 450.684894 138.043641 
L 453.863295 144.643824 
L 457.041695 151.707571 
L 460.220096 159.281637 
L 463.398496 167.423437 
L 466.576897 176.204749 
L 469.755297 185.71729 
L 472.933698 196.081447 
L 475.476418 205.093777 
L 478.019139 214.86792 
L 480.561859 225.559133 
L 483.10458 237.39011 
L 485.01162 247.209178 
L 486.91866 258.075512 
L 488.825701 270.333266 
L 490.732741 284.583863 
L 492.004101 295.754181 
L 493.275461 309.108371 
L 493.911141 317.11455 
L 494.546822 326.647942 
L 495.182502 339.12 
L 495.818182 369.36 
L 495.818182 369.36 
" clip-path="url(#pb2b4fe6215)" style="fill: none; stroke: #ffaf00; stroke-width: 1.5; stroke-linecap: square"/>
   </g>
   <g id="line2d_38">
    <path d="M 222.562977 369.36 
L 223.296997 339.12 
L 224.031018 326.647942 
L 224.765038 317.11455 
L 226.233078 302.081955 
L 227.701118 289.957842 
L 229.169159 279.556387 
L 231.371219 266.063322 
L 233.57328 254.319306 
L 235.77534 243.832468 
L 237.977401 234.309624 
L 240.913481 222.789673 
L 243.849562 212.345373 
L 246.785643 202.774283 
L 249.721723 193.933419 
L 252.657804 185.71729 
L 255.593885 178.045389 
L 259.263985 169.125934 
L 262.934086 160.862517 
L 266.604187 153.179894 
L 270.274288 146.018123 
L 273.944389 139.328549 
L 277.61449 133.071064 
L 281.28459 127.212168 
L 284.954691 121.723568 
L 288.624792 116.581143 
L 292.294893 111.76416 
L 295.964994 107.254675 
L 300.369115 102.227337 
L 304.773236 97.597074 
L 309.177357 93.3439 
L 313.581478 89.450628 
L 317.985599 85.902425 
L 322.38972 82.68648 
L 326.793841 79.791721 
L 331.197962 77.208602 
L 335.602083 74.928919 
L 340.006204 72.945672 
L 343.676304 71.515111 
L 347.346405 70.283388 
L 351.016506 69.248053 
L 354.686607 68.40708 
L 358.356708 67.758844 
L 362.026808 67.302103 
L 365.696909 67.035989 
L 369.36701 66.96 
L 373.037111 67.073991 
L 376.707212 67.378179 
L 380.377313 67.873137 
L 384.047413 68.55981 
L 387.717514 69.439512 
L 391.387615 70.513949 
L 395.057716 71.78523 
L 398.727817 73.255891 
L 402.397917 74.928919 
L 406.068018 76.807786 
L 409.738119 78.896486 
L 413.40822 81.199582 
L 417.812341 84.25365 
L 422.216462 87.634237 
L 426.620583 91.353254 
L 430.290684 94.720839 
L 433.960785 98.342095 
L 437.630885 102.227337 
L 441.300986 106.388266 
L 444.971087 110.838194 
L 448.641188 115.592322 
L 452.311289 120.668097 
L 455.981389 126.08565 
L 459.65149 131.86837 
L 463.321591 138.043641 
L 466.991692 144.643824 
L 470.661793 151.707571 
L 474.331894 159.281637 
L 478.001994 167.423437 
L 481.672095 176.204749 
L 484.608176 183.751011 
L 487.544257 191.824319 
L 490.480337 200.50025 
L 493.416418 209.877123 
L 496.352499 220.086973 
L 499.288579 231.314496 
L 501.49064 240.56208 
L 503.6927 250.701288 
L 505.894761 261.984406 
L 508.096821 274.820119 
L 509.564862 284.583863 
L 511.032902 295.754181 
L 512.500942 309.108371 
L 513.234962 317.11455 
L 513.968982 326.647942 
L 514.703003 339.12 
L 515.437023 369.36 
L 515.437023 369.36 
" clip-path="url(#pb2b4fe6215)" style="fill: none; stroke: #f46920; stroke-width: 1.5; stroke-linecap: square"/>
   </g>
   <g id="line2d_39">
    <path d="M 189.652007 369.36 
L 190.550995 339.12 
L 191.449982 326.647942 
L 192.34897 317.11455 
L 194.146944 302.081955 
L 195.944919 289.957842 
L 197.742894 279.556387 
L 199.540869 270.333266 
L 201.338844 261.984406 
L 204.035806 250.701288 
L 206.732769 240.56208 
L 209.429731 231.314496 
L 212.126693 222.789673 
L 214.823655 214.86792 
L 218.419605 205.093777 
L 222.015555 196.081447 
L 225.611505 187.7175 
L 229.207454 179.916039 
L 232.803404 172.610142 
L 236.399354 165.746457 
L 239.995304 159.281637 
L 244.490241 151.707571 
L 248.985178 144.643824 
L 253.480115 138.043641 
L 257.975052 131.86837 
L 262.469989 126.08565 
L 266.964926 120.668097 
L 271.459864 115.592322 
L 275.954801 110.838194 
L 280.449738 106.388266 
L 284.944675 102.227337 
L 289.439612 98.342095 
L 293.934549 94.720839 
L 298.429487 91.353254 
L 302.924424 88.230224 
L 307.419361 85.34368 
L 311.914298 82.68648 
L 316.409235 80.252299 
L 320.904172 78.035547 
L 325.39911 76.031295 
L 329.894047 74.235213 
L 334.388984 72.643521 
L 338.883921 71.252944 
L 343.378858 70.06068 
L 347.873795 69.064367 
L 352.368733 68.262059 
L 356.86367 67.652209 
L 361.358607 67.233651 
L 365.853544 67.005591 
L 370.348481 66.967598 
L 374.843418 67.1196 
L 379.338355 67.461884 
L 383.833293 67.995098 
L 388.32823 68.720259 
L 392.823167 69.638759 
L 397.318104 70.752383 
L 401.813041 72.063323 
L 406.307978 73.574203 
L 410.802916 75.288105 
L 415.297853 77.208602 
L 419.79279 79.339797 
L 424.287727 81.686374 
L 428.782664 84.25365 
L 433.277601 87.047647 
L 437.772539 90.075169 
L 442.267476 93.3439 
L 446.762413 96.862521 
L 451.25735 100.640846 
L 455.752287 104.689999 
L 460.247224 109.022616 
L 464.742162 113.653105 
L 469.237099 118.597967 
L 473.732036 123.876199 
L 478.226973 129.509809 
L 482.72191 135.524481 
L 487.216847 141.950447 
L 491.711784 148.823659 
L 496.206722 156.187373 
L 499.802671 162.46658 
L 503.398621 169.125934 
L 506.994571 176.204749 
L 510.590521 183.751011 
L 514.18647 191.824319 
L 517.78242 200.50025 
L 521.37837 209.877123 
L 524.075332 217.447468 
L 526.772294 225.559133 
L 529.469257 234.309624 
L 532.166219 243.832468 
L 534.863181 254.319306 
L 537.560143 266.063322 
L 539.358118 274.820119 
L 541.156093 284.583863 
L 542.954068 295.754181 
L 544.752043 309.108371 
L 545.65103 317.11455 
L 546.550018 326.647942 
L 547.449005 339.12 
L 548.347993 369.36 
L 548.347993 369.36 
" clip-path="url(#pb2b4fe6215)" style="fill: none; stroke: #f53255; stroke-width: 1.5; stroke-linecap: square"/>
   </g>
   <g id="line2d_40">
    <path d="M 115.363636 369.36 
L 116.634997 339.12 
L 117.906357 326.647942 
L 119.177717 317.11455 
L 120.449077 309.108371 
L 121.720437 302.081955 
L 124.263158 289.957842 
L 126.805878 279.556387 
L 129.348599 270.333266 
L 131.891319 261.984406 
L 134.43404 254.319306 
L 136.97676 247.209178 
L 140.790841 237.39011 
L 144.604921 228.399286 
L 148.419002 220.086973 
L 152.233083 212.345373 
L 156.047163 205.093777 
L 159.861244 198.269867 
L 163.675325 191.824319 
L 167.489405 185.71729 
L 172.574846 178.045389 
L 177.660287 170.854606 
L 182.745728 164.094371 
L 187.831169 157.723422 
L 192.91661 151.707571 
L 198.002051 146.018123 
L 203.087491 140.630718 
L 208.172932 135.524481 
L 213.258373 130.681363 
L 219.615174 124.973727 
L 225.971975 119.626287 
L 232.328776 114.616359 
L 238.685578 109.924388 
L 245.042379 105.533412 
L 251.39918 101.42863 
L 257.755981 97.597074 
L 264.112782 94.027337 
L 270.469583 90.709356 
L 276.826384 87.634237 
L 283.183185 84.794106 
L 289.539986 82.181991 
L 295.896787 79.791721 
L 302.253589 77.617844 
L 308.61039 75.655554 
L 314.967191 73.900635 
L 321.323992 72.349412 
L 327.680793 70.998708 
L 334.037594 69.84581 
L 340.394395 68.88844 
L 346.751196 68.124736 
L 353.107997 67.553225 
L 359.464798 67.172819 
L 365.821599 66.982795 
L 372.178401 66.982795 
L 378.535202 67.172819 
L 384.892003 67.553225 
L 391.248804 68.124736 
L 397.605605 68.88844 
L 403.962406 69.84581 
L 410.319207 70.998708 
L 416.676008 72.349412 
L 423.032809 73.900635 
L 429.38961 75.655554 
L 435.746411 77.617844 
L 442.103213 79.791721 
L 448.460014 82.181991 
L 454.816815 84.794106 
L 461.173616 87.634237 
L 467.530417 90.709356 
L 473.887218 94.027337 
L 480.244019 97.597074 
L 486.60082 101.42863 
L 492.957621 105.533412 
L 499.314422 109.924388 
L 505.671224 114.616359 
L 512.028025 119.626287 
L 518.384826 124.973727 
L 523.470267 129.509809 
L 528.555707 134.289684 
L 533.641148 139.328549 
L 538.726589 144.643824 
L 543.81203 150.255627 
L 548.897471 156.187373 
L 553.982912 162.46658 
L 559.068353 169.125934 
L 564.153794 176.204749 
L 569.239234 183.751011 
L 573.053315 189.752774 
L 576.867396 196.081447 
L 580.681476 202.774283 
L 584.495557 209.877123 
L 588.309638 217.447468 
L 592.123718 225.559133 
L 595.937799 234.309624 
L 599.75188 243.832468 
L 602.2946 250.701288 
L 604.837321 258.075512 
L 607.380041 266.063322 
L 609.922761 274.820119 
L 612.465482 284.583863 
L 615.008202 295.754181 
L 616.279563 302.081955 
L 617.550923 309.108371 
L 618.822283 317.11455 
L 620.093643 326.647942 
L 621.365003 339.12 
L 622.636364 369.36 
L 622.636364 369.36 
" clip-path="url(#pb2b4fe6215)" style="fill: none; stroke: #f857c1; stroke-width: 1.5; stroke-linecap: square"/>
   </g>
   <g id="patch_3">
    <path d="M 90 384.48 
L 90 51.84 
" style="fill: none; stroke: #1a1a1a; stroke-linejoin: miter; stroke-linecap: square"/>
   </g>
   <g id="patch_4">
    <path d="M 90 384.48 
L 648 384.48 
" style="fill: none; stroke: #1a1a1a; stroke-linejoin: miter; stroke-linecap: square"/>
   </g>
   <g id="text_21">
    <!-- Cut Length as a Function of Height for Different Angles -->
    <g style="fill: #333333" transform="translate(149.4675 45.84) scale(0.16 -0.16)">
     <defs>
      <path id="DejaVuSans-61" d="M 2194 1759 
Q 1497 1759 1228 1600 
Q 959 1441 959 1056 
Q 959 750 1161 570 
Q 1363 391 1709 391 
Q 2188 391 2477 730 
Q 2766 1069 2766 1631 
L 2766 1759 
L 2194 1759 
z
M 3341 1997 
L 3341 0 
L 2766 0 
L 2766 531 
Q 2569 213 2275 61 
Q 1981 -91 1556 -91 
Q 1019 -91 701 211 
Q 384 513 384 1019 
Q 384 1609 779 1909 
Q 1175 2209 1959 2209 
L 2766 2209 
L 2766 2266 
Q 2766 2663 2505 2880 
Q 2244 3097 1772 3097 
Q 1472 3097 1187 3025 
Q 903 2953 641 2809 
L 641 3341 
Q 956 3463 1253 3523 
Q 1550 3584 1831 3584 
Q 2591 3584 2966 3190 
Q 3341 2797 3341 1997 
z
" transform="scale(0.015625)"/>
      <path id="DejaVuSans-73" d="M 2834 3397 
L 2834 2853 
Q 2591 2978 2328 3040 
Q 2066 3103 1784 3103 
Q 1356 3103 1142 2972 
Q 928 2841 928 2578 
Q 928 2378 1081 2264 
Q 1234 2150 1697 2047 
L 1894 2003 
Q 2506 1872 2764 1633 
Q 3022 1394 3022 966 
Q 3022 478 2636 193 
Q 2250 -91 1575 -91 
Q 1294 -91 989 -36 
Q 684 19 347 128 
L 347 722 
Q 666 556 975 473 
Q 1284 391 1588 391 
Q 1994 391 2212 530 
Q 2431 669 2431 922 
Q 2431 1156 2273 1281 
Q 2116 1406 1581 1522 
L 1381 1569 
Q 847 1681 609 1914 
Q 372 2147 372 2553 
Q 372 3047 722 3315 
Q 1072 3584 1716 3584 
Q 2034 3584 2315 3537 
Q 2597 3491 2834 3397 
z
" transform="scale(0.015625)"/>
      <path id="DejaVuSans-46" d="M 628 4666 
L 3309 4666 
L 3309 4134 
L 1259 4134 
L 1259 2759 
L 3109 2759 
L 3109 2228 
L 1259 2228 
L 1259 0 
L 628 0 
L 628 4666 
z
" transform="scale(0.015625)"/>
      <path id="DejaVuSans-63" d="M 3122 3366 
L 3122 2828 
Q 2878 2963 2633 3030 
Q 2388 3097 2138 3097 
Q 1578 3097 1268 2742 
Q 959 2388 959 1747 
Q 959 1106 1268 751 
Q 1578 397 2138 397 
Q 2388 397 2633 464 
Q 2878 531 3122 666 
L 3122 134 
Q 2881 22 2623 -34 
Q 2366 -91 2075 -91 
Q 1284 -91 818 406 
Q 353 903 353 1747 
Q 353 2603 823 3093 
Q 1294 3584 2113 3584 
Q 2378 3584 2631 3529 
Q 2884 3475 3122 3366 
z
" transform="scale(0.015625)"/>
      <path id="DejaVuSans-6f" d="M 1959 3097 
Q 1497 3097 1228 2736 
Q 959 2375 959 1747 
Q 959 1119 1226 758 
Q 1494 397 1959 397 
Q 2419 397 2687 759 
Q 2956 1122 2956 1747 
Q 2956 2369 2687 2733 
Q 2419 3097 1959 3097 
z
M 1959 3584 
Q 2709 3584 3137 3096 
Q 3566 2609 3566 1747 
Q 3566 888 3137 398 
Q 2709 -91 1959 -91 
Q 1206 -91 779 398 
Q 353 888 353 1747 
Q 353 2609 779 3096 
Q 1206 3584 1959 3584 
z
" transform="scale(0.015625)"/>
      <path id="DejaVuSans-66" d="M 2375 4863 
L 2375 4384 
L 1825 4384 
Q 1516 4384 1395 4259 
Q 1275 4134 1275 3809 
L 1275 3500 
L 2222 3500 
L 2222 3053 
L 1275 3053 
L 1275 0 
L 697 0 
L 697 3053 
L 147 3053 
L 147 3500 
L 697 3500 
L 697 3744 
Q 697 4328 969 4595 
Q 1241 4863 1831 4863 
L 2375 4863 
z
" transform="scale(0.015625)"/>
      <path id="DejaVuSans-72" d="M 2631 2963 
Q 2534 3019 2420 3045 
Q 2306 3072 2169 3072 
Q 1681 3072 1420 2755 
Q 1159 2438 1159 1844 
L 1159 0 
L 581 0 
L 581 3500 
L 1159 3500 
L 1159 2956 
Q 1341 3275 1631 3429 
Q 1922 3584 2338 3584 
Q 2397 3584 2469 3576 
Q 2541 3569 2628 3553 
L 2631 2963 
z
" transform="scale(0.015625)"/>
      <path id="DejaVuSans-44" d="M 1259 4147 
L 1259 519 
L 2022 519 
Q 2988 519 3436 956 
Q 3884 1394 3884 2338 
Q 3884 3275 3436 3711 
Q 2988 4147 2022 4147 
L 1259 4147 
z
M 628 4666 
L 1925 4666 
Q 3281 4666 3915 4102 
Q 4550 3538 4550 2338 
Q 4550 1131 3912 565 
Q 3275 0 1925 0 
L 628 0 
L 628 4666 
z
" transform="scale(0.015625)"/>
      <path id="DejaVuSans-41" d="M 2188 4044 
L 1331 1722 
L 3047 1722 
L 2188 4044 
z
M 1831 4666 
L 2547 4666 
L 4325 0 
L 3669 0 
L 3244 1197 
L 1141 1197 
L 716 0 
L 50 0 
L 1831 4666 
z
" transform="scale(0.015625)"/>
      <path id="DejaVuSans-6c" d="M 603 4863 
L 1178 4863 
L 1178 0 
L 603 0 
L 603 4863 
z
" transform="scale(0.015625)"/>
     </defs>
     <use xlink:href="#DejaVuSans-43"/>
     <use xlink:href="#DejaVuSans-75" x="69.824219"/>
     <use xlink:href="#DejaVuSans-74" x="133.203125"/>
     <use xlink:href="#DejaVuSans-20" x="172.412109"/>
     <use xlink:href="#DejaVuSans-4c" x="204.199219"/>
     <use xlink:href="#DejaVuSans-65" x="258.162109"/>
     <use xlink:href="#DejaVuSans-6e" x="319.685547"/>
     <use xlink:href="#DejaVuSans-67" x="383.064453"/>
     <use xlink:href="#DejaVuSans-74" x="446.541016"/>
     <use xlink:href="#DejaVuSans-68" x="485.75"/>
     <use xlink:href="#DejaVuSans-20" x="549.128906"/>
     <use xlink:href="#DejaVuSans-61" x="580.916016"/>
     <use xlink:href="#DejaVuSans-73" x="642.195312"/>
     <use xlink:href="#DejaVuSans-20" x="694.294922"/>
     <use xlink:href="#DejaVuSans-61" x="726.082031"/>
     <use xlink:href="#DejaVuSans-20" x="787.361328"/>
     <use xlink:href="#DejaVuSans-46" x="819.148438"/>
     <use xlink:href="#DejaVuSans-75" x="871.167969"/>
     <use xlink:href="#DejaVuSans-6e" x="934.546875"/>
     <use xlink:href="#DejaVuSans-63" x="997.925781"/>
     <use xlink:href="#DejaVuSans-74" x="1052.90625"/>
     <use xlink:href="#DejaVuSans-69" x="1092.115234"/>
     <use xlink:href="#DejaVuSans-6f" x="1119.898438"/>
     <use xlink:href="#DejaVuSans-6e" x="1181.080078"/>
     <use xlink:href="#DejaVuSans-20" x="1244.458984"/>
     <use xlink:href="#DejaVuSans-6f" x="1276.246094"/>
     <use xlink:href="#DejaVuSans-66" x="1337.427734"/>
     <use xlink:href="#DejaVuSans-20" x="1372.632812"/>
     <use xlink:href="#DejaVuSans-48" x="1404.419922"/>
     <use xlink:href="#DejaVuSans-65" x="1479.615234"/>
     <use xlink:href="#DejaVuSans-69" x="1541.138672"/>
     <use xlink:href="#DejaVuSans-67" x="1568.921875"/>
     <use xlink:href="#DejaVuSans-68" x="1632.398438"/>
     <use xlink:href="#DejaVuSans-74" x="1695.777344"/>
     <use xlink:href="#DejaVuSans-20" x="1734.986328"/>
     <use xlink:href="#DejaVuSans-66" x="1766.773438"/>
     <use xlink:href="#DejaVuSans-6f" x="1801.978516"/>
     <use xlink:href="#DejaVuSans-72" x="1863.160156"/>
     <use xlink:href="#DejaVuSans-20" x="1904.273438"/>
     <use xlink:href="#DejaVuSans-44" x="1936.060547"/>
     <use xlink:href="#DejaVuSans-69" x="2013.0625"/>
     <use xlink:href="#DejaVuSans-66" x="2040.845703"/>
     <use xlink:href="#DejaVuSans-66" x="2076.050781"/>
     <use xlink:href="#DejaVuSans-65" x="2111.255859"/>
     <use xlink:href="#DejaVuSans-72" x="2172.779297"/>
     <use xlink:href="#DejaVuSans-65" x="2211.642578"/>
     <use xlink:href="#DejaVuSans-6e" x="2273.166016"/>
     <use xlink:href="#DejaVuSans-74" x="2336.544922"/>
     <use xlink:href="#DejaVuSans-20" x="2375.753906"/>
     <use xlink:href="#DejaVuSans-41" x="2407.541016"/>
     <use xlink:href="#DejaVuSans-6e" x="2475.949219"/>
     <use xlink:href="#DejaVuSans-67" x="2539.328125"/>
     <use xlink:href="#DejaVuSans-6c" x="2602.804688"/>
     <use xlink:href="#DejaVuSans-65" x="2630.587891"/>
     <use xlink:href="#DejaVuSans-73" x="2692.111328"/>
    </g>
   </g>
   <g id="legend_1">
    <g id="patch_5">
     <path d="M 552.845312 118.5525 
L 641 118.5525 
Q 643 118.5525 643 116.5525 
L 643 58.84 
Q 643 56.84 641 56.84 
L 552.845312 56.84 
Q 550.845312 56.84 550.845312 58.84 
L 550.845312 116.5525 
Q 550.845312 118.5525 552.845312 118.5525 
z
" style="fill: #ffffff; opacity: 0.8; stroke: #cccccc; stroke-linejoin: miter"/>
    </g>
    <g id="line2d_41">
     <path d="M 554.845312 64.938438 
L 564.845312 64.938438 
L 574.845312 64.938438 
" style="fill: none; stroke: #ffaf00; stroke-width: 1.5; stroke-linecap: square"/>
    </g>
    <g id="text_22">
     <!-- 0 degrees -->
     <g style="fill: #333333" transform="translate(582.845312 68.438438) scale(0.1 -0.1)">
      <defs>
       <path id="DejaVuSans-64" d="M 2906 2969 
L 2906 4863 
L 3481 4863 
L 3481 0 
L 2906 0 
L 2906 525 
Q 2725 213 2448 61 
Q 2172 -91 1784 -91 
Q 1150 -91 751 415 
Q 353 922 353 1747 
Q 353 2572 751 3078 
Q 1150 3584 1784 3584 
Q 2172 3584 2448 3432 
Q 2725 3281 2906 2969 
z
M 947 1747 
Q 947 1113 1208 752 
Q 1469 391 1925 391 
Q 2381 391 2643 752 
Q 2906 1113 2906 1747 
Q 2906 2381 2643 2742 
Q 2381 3103 1925 3103 
Q 1469 3103 1208 2742 
Q 947 2381 947 1747 
z
" transform="scale(0.015625)"/>
      </defs>
      <use xlink:href="#DejaVuSans-30"/>
      <use xlink:href="#DejaVuSans-20" x="63.623047"/>
      <use xlink:href="#DejaVuSans-64" x="95.410156"/>
      <use xlink:href="#DejaVuSans-65" x="158.886719"/>
      <use xlink:href="#DejaVuSans-67" x="220.410156"/>
      <use xlink:href="#DejaVuSans-72" x="283.886719"/>
      <use xlink:href="#DejaVuSans-65" x="322.75"/>
      <use xlink:href="#DejaVuSans-65" x="384.273438"/>
      <use xlink:href="#DejaVuSans-73" x="445.796875"/>
     </g>
    </g>
    <g id="line2d_42">
     <path d="M 554.845312 79.616563 
L 564.845312 79.616563 
L 574.845312 79.616563 
" style="fill: none; stroke: #f46920; stroke-width: 1.5; stroke-linecap: square"/>
    </g>
    <g id="text_23">
     <!-- 30 degrees -->
     <g style="fill: #333333" transform="translate(582.845312 83.116563) scale(0.1 -0.1)">
      <defs>
       <path id="DejaVuSans-33" d="M 2597 2516 
Q 3050 2419 3304 2112 
Q 3559 1806 3559 1356 
Q 3559 666 3084 287 
Q 2609 -91 1734 -91 
Q 1441 -91 1130 -33 
Q 819 25 488 141 
L 488 750 
Q 750 597 1062 519 
Q 1375 441 1716 441 
Q 2309 441 2620 675 
Q 2931 909 2931 1356 
Q 2931 1769 2642 2001 
Q 2353 2234 1838 2234 
L 1294 2234 
L 1294 2753 
L 1863 2753 
Q 2328 2753 2575 2939 
Q 2822 3125 2822 3475 
Q 2822 3834 2567 4026 
Q 2313 4219 1838 4219 
Q 1578 4219 1281 4162 
Q 984 4106 628 3988 
L 628 4550 
Q 988 4650 1302 4700 
Q 1616 4750 1894 4750 
Q 2613 4750 3031 4423 
Q 3450 4097 3450 3541 
Q 3450 3153 3228 2886 
Q 3006 2619 2597 2516 
z
" transform="scale(0.015625)"/>
      </defs>
      <use xlink:href="#DejaVuSans-33"/>
      <use xlink:href="#DejaVuSans-30" x="63.623047"/>
      <use xlink:href="#DejaVuSans-20" x="127.246094"/>
      <use xlink:href="#DejaVuSans-64" x="159.033203"/>
      <use xlink:href="#DejaVuSans-65" x="222.509766"/>
      <use xlink:href="#DejaVuSans-67" x="284.033203"/>
      <use xlink:href="#DejaVuSans-72" x="347.509766"/>
      <use xlink:href="#DejaVuSans-65" x="386.373047"/>
      <use xlink:href="#DejaVuSans-65" x="447.896484"/>
      <use xlink:href="#DejaVuSans-73" x="509.419922"/>
     </g>
    </g>
    <g id="line2d_43">
     <path d="M 554.845312 94.294688 
L 564.845312 94.294688 
L 574.845312 94.294688 
" style="fill: none; stroke: #f53255; stroke-width: 1.5; stroke-linecap: square"/>
    </g>
    <g id="text_24">
     <!-- 45 degrees -->
     <g style="fill: #333333" transform="translate(582.845312 97.794688) scale(0.1 -0.1)">
      <defs>
       <path id="DejaVuSans-34" d="M 2419 4116 
L 825 1625 
L 2419 1625 
L 2419 4116 
z
M 2253 4666 
L 3047 4666 
L 3047 1625 
L 3713 1625 
L 3713 1100 
L 3047 1100 
L 3047 0 
L 2419 0 
L 2419 1100 
L 313 1100 
L 313 1709 
L 2253 4666 
z
" transform="scale(0.015625)"/>
      </defs>
      <use xlink:href="#DejaVuSans-34"/>
      <use xlink:href="#DejaVuSans-35" x="63.623047"/>
      <use xlink:href="#DejaVuSans-20" x="127.246094"/>
      <use xlink:href="#DejaVuSans-64" x="159.033203"/>
      <use xlink:href="#DejaVuSans-65" x="222.509766"/>
      <use xlink:href="#DejaVuSans-67" x="284.033203"/>
      <use xlink:href="#DejaVuSans-72" x="347.509766"/>
      <use xlink:href="#DejaVuSans-65" x="386.373047"/>
      <use xlink:href="#DejaVuSans-65" x="447.896484"/>
      <use xlink:href="#DejaVuSans-73" x="509.419922"/>
     </g>
    </g>
    <g id="line2d_44">
     <path d="M 554.845312 108.972813 
L 564.845312 108.972813 
L 574.845312 108.972813 
" style="fill: none; stroke: #f857c1; stroke-width: 1.5; stroke-linecap: square"/>
    </g>
    <g id="text_25">
     <!-- 60 degrees -->
     <g style="fill: #333333" transform="translate(582.845312 112.472813) scale(0.1 -0.1)">
      <defs>
       <path id="DejaVuSans-36" d="M 2113 2584 
Q 1688 2584 1439 2293 
Q 1191 2003 1191 1497 
Q 1191 994 1439 701 
Q 1688 409 2113 409 
Q 2538 409 2786 701 
Q 3034 994 3034 1497 
Q 3034 2003 2786 2293 
Q 2538 2584 2113 2584 
z
M 3366 4563 
L 3366 3988 
Q 3128 4100 2886 4159 
Q 2644 4219 2406 4219 
Q 1781 4219 1451 3797 
Q 1122 3375 1075 2522 
Q 1259 2794 1537 2939 
Q 1816 3084 2150 3084 
Q 2853 3084 3261 2657 
Q 3669 2231 3669 1497 
Q 3669 778 3244 343 
Q 2819 -91 2113 -91 
Q 1303 -91 875 529 
Q 447 1150 447 2328 
Q 447 3434 972 4092 
Q 1497 4750 2381 4750 
Q 2619 4750 2861 4703 
Q 3103 4656 3366 4563 
z
" transform="scale(0.015625)"/>
      </defs>
      <use xlink:href="#DejaVuSans-36"/>
      <use xlink:href="#DejaVuSans-30" x="63.623047"/>
      <use xlink:href="#DejaVuSans-20" x="127.246094"/>
      <use xlink:href="#DejaVuSans-64" x="159.033203"/>
      <use xlink:href="#DejaVuSans-65" x="222.509766"/>
      <use xlink:href="#DejaVuSans-67" x="284.033203"/>
      <use xlink:href="#DejaVuSans-72" x="347.509766"/>
      <use xlink:href="#DejaVuSans-65" x="386.373047"/>
      <use xlink:href="#DejaVuSans-65" x="447.896484"/>
      <use xlink:href="#DejaVuSans-73" x="509.419922"/>
     </g>
    </g>
   </g>
  </g>
 </g>
 <defs>
  <clipPath id="pb2b4fe6215">
   <rect x="90" y="51.84" width="558" height="332.64"/>
  </clipPath>
 </defs>
</svg>
