<?xml version="1.0" encoding="utf-8" standalone="no"?>
<!DOCTYPE svg PUBLIC "-//W3C//DTD SVG 1.1//EN"
  "http://www.w3.org/Graphics/SVG/1.1/DTD/svg11.dtd">
<svg xmlns:xlink="http://www.w3.org/1999/xlink" width="720pt" height="432pt" viewBox="0 0 720 432" xmlns="http://www.w3.org/2000/svg" version="1.1">
 <metadata>
  <rdf:RDF xmlns:dc="http://purl.org/dc/elements/1.1/" xmlns:cc="http://creativecommons.org/ns#" xmlns:rdf="http://www.w3.org/1999/02/22-rdf-syntax-ns#">
   <cc:Work>
    <dc:type rdf:resource="http://purl.org/dc/dcmitype/StillImage"/>
    <dc:date>2024-09-04T19:26:48.958099</dc:date>
    <dc:format>image/svg+xml</dc:format>
    <dc:creator>
     <cc:Agent>
      <dc:title>Matplotlib v3.8.4, https://matplotlib.org/</dc:title>
     </cc:Agent>
    </dc:creator>
   </cc:Work>
  </rdf:RDF>
 </metadata>
 <defs>
  <style type="text/css">*{stroke-linejoin: round; stroke-linecap: butt}</style>
 </defs>
 <g id="figure_1">
  <g id="patch_1">
   <path d="M 0 432 
L 720 432 
L 720 0 
L 0 0 
z
" style="fill: #ffffff"/>
  </g>
  <g id="axes_1">
   <g id="patch_2">
    <path d="M 90 384.48 
L 648 384.48 
L 648 51.84 
L 90 51.84 
z
" style="fill: #ffffff"/>
   </g>
   <g id="matplotlib.axis_1">
    <g id="xtick_1">
     <g id="line2d_1">
      <defs>
       <path id="m9cfc072814" d="M 0 0 
L 0 3.5 
" style="stroke: #000000; stroke-width: 0.8"/>
      </defs>
      <g>
       <use xlink:href="#m9cfc072814" x="115.363636" y="384.48" style="stroke: #000000; stroke-width: 0.8"/>
      </g>
     </g>
     <g id="text_1">
      <!-- −1.0 -->
      <g transform="translate(103.22223 399.078438) scale(0.1 -0.1)">
       <defs>
        <path id="DejaVuSans-2212" d="M 678 2272 
L 4684 2272 
L 4684 1741 
L 678 1741 
L 678 2272 
z
" transform="scale(0.015625)"/>
        <path id="DejaVuSans-31" d="M 794 531 
L 1825 531 
L 1825 4091 
L 703 3866 
L 703 4441 
L 1819 4666 
L 2450 4666 
L 2450 531 
L 3481 531 
L 3481 0 
L 794 0 
L 794 531 
z
" transform="scale(0.015625)"/>
        <path id="DejaVuSans-2e" d="M 684 794 
L 1344 794 
L 1344 0 
L 684 0 
L 684 794 
z
" transform="scale(0.015625)"/>
        <path id="DejaVuSans-30" d="M 2034 4250 
Q 1547 4250 1301 3770 
Q 1056 3291 1056 2328 
Q 1056 1369 1301 889 
Q 1547 409 2034 409 
Q 2525 409 2770 889 
Q 3016 1369 3016 2328 
Q 3016 3291 2770 3770 
Q 2525 4250 2034 4250 
z
M 2034 4750 
Q 2819 4750 3233 4129 
Q 3647 3509 3647 2328 
Q 3647 1150 3233 529 
Q 2819 -91 2034 -91 
Q 1250 -91 836 529 
Q 422 1150 422 2328 
Q 422 3509 836 4129 
Q 1250 4750 2034 4750 
z
" transform="scale(0.015625)"/>
       </defs>
       <use xlink:href="#DejaVuSans-2212"/>
       <use xlink:href="#DejaVuSans-31" x="83.789062"/>
       <use xlink:href="#DejaVuSans-2e" x="147.412109"/>
       <use xlink:href="#DejaVuSans-30" x="179.199219"/>
      </g>
     </g>
    </g>
    <g id="xtick_2">
     <g id="line2d_2">
      <g>
       <use xlink:href="#m9cfc072814" x="199.909091" y="384.48" style="stroke: #000000; stroke-width: 0.8"/>
      </g>
     </g>
     <g id="text_2">
      <!-- −0.5 -->
      <g transform="translate(187.767685 399.078438) scale(0.1 -0.1)">
       <defs>
        <path id="DejaVuSans-35" d="M 691 4666 
L 3169 4666 
L 3169 4134 
L 1269 4134 
L 1269 2991 
Q 1406 3038 1543 3061 
Q 1681 3084 1819 3084 
Q 2600 3084 3056 2656 
Q 3513 2228 3513 1497 
Q 3513 744 3044 326 
Q 2575 -91 1722 -91 
Q 1428 -91 1123 -41 
Q 819 9 494 109 
L 494 744 
Q 775 591 1075 516 
Q 1375 441 1709 441 
Q 2250 441 2565 725 
Q 2881 1009 2881 1497 
Q 2881 1984 2565 2268 
Q 2250 2553 1709 2553 
Q 1456 2553 1204 2497 
Q 953 2441 691 2322 
L 691 4666 
z
" transform="scale(0.015625)"/>
       </defs>
       <use xlink:href="#DejaVuSans-2212"/>
       <use xlink:href="#DejaVuSans-30" x="83.789062"/>
       <use xlink:href="#DejaVuSans-2e" x="147.412109"/>
       <use xlink:href="#DejaVuSans-35" x="179.199219"/>
      </g>
     </g>
    </g>
    <g id="xtick_3">
     <g id="line2d_3">
      <g>
       <use xlink:href="#m9cfc072814" x="284.454545" y="384.48" style="stroke: #000000; stroke-width: 0.8"/>
      </g>
     </g>
     <g id="text_3">
      <!-- 0.0 -->
      <g transform="translate(276.502983 399.078438) scale(0.1 -0.1)">
       <use xlink:href="#DejaVuSans-30"/>
       <use xlink:href="#DejaVuSans-2e" x="63.623047"/>
       <use xlink:href="#DejaVuSans-30" x="95.410156"/>
      </g>
     </g>
    </g>
    <g id="xtick_4">
     <g id="line2d_4">
      <g>
       <use xlink:href="#m9cfc072814" x="369" y="384.48" style="stroke: #000000; stroke-width: 0.8"/>
      </g>
     </g>
     <g id="text_4">
      <!-- 0.5 -->
      <g transform="translate(361.048438 399.078438) scale(0.1 -0.1)">
       <use xlink:href="#DejaVuSans-30"/>
       <use xlink:href="#DejaVuSans-2e" x="63.623047"/>
       <use xlink:href="#DejaVuSans-35" x="95.410156"/>
      </g>
     </g>
    </g>
    <g id="xtick_5">
     <g id="line2d_5">
      <g>
       <use xlink:href="#m9cfc072814" x="453.545455" y="384.48" style="stroke: #000000; stroke-width: 0.8"/>
      </g>
     </g>
     <g id="text_5">
      <!-- 1.0 -->
      <g transform="translate(445.593892 399.078438) scale(0.1 -0.1)">
       <use xlink:href="#DejaVuSans-31"/>
       <use xlink:href="#DejaVuSans-2e" x="63.623047"/>
       <use xlink:href="#DejaVuSans-30" x="95.410156"/>
      </g>
     </g>
    </g>
    <g id="xtick_6">
     <g id="line2d_6">
      <g>
       <use xlink:href="#m9cfc072814" x="538.090909" y="384.48" style="stroke: #000000; stroke-width: 0.8"/>
      </g>
     </g>
     <g id="text_6">
      <!-- 1.5 -->
      <g transform="translate(530.139347 399.078438) scale(0.1 -0.1)">
       <use xlink:href="#DejaVuSans-31"/>
       <use xlink:href="#DejaVuSans-2e" x="63.623047"/>
       <use xlink:href="#DejaVuSans-35" x="95.410156"/>
      </g>
     </g>
    </g>
    <g id="xtick_7">
     <g id="line2d_7">
      <g>
       <use xlink:href="#m9cfc072814" x="622.636364" y="384.48" style="stroke: #000000; stroke-width: 0.8"/>
      </g>
     </g>
     <g id="text_7">
      <!-- 2.0 -->
      <g transform="translate(614.684801 399.078438) scale(0.1 -0.1)">
       <defs>
        <path id="DejaVuSans-32" d="M 1228 531 
L 3431 531 
L 3431 0 
L 469 0 
L 469 531 
Q 828 903 1448 1529 
Q 2069 2156 2228 2338 
Q 2531 2678 2651 2914 
Q 2772 3150 2772 3378 
Q 2772 3750 2511 3984 
Q 2250 4219 1831 4219 
Q 1534 4219 1204 4116 
Q 875 4013 500 3803 
L 500 4441 
Q 881 4594 1212 4672 
Q 1544 4750 1819 4750 
Q 2544 4750 2975 4387 
Q 3406 4025 3406 3419 
Q 3406 3131 3298 2873 
Q 3191 2616 2906 2266 
Q 2828 2175 2409 1742 
Q 1991 1309 1228 531 
z
" transform="scale(0.015625)"/>
       </defs>
       <use xlink:href="#DejaVuSans-32"/>
       <use xlink:href="#DejaVuSans-2e" x="63.623047"/>
       <use xlink:href="#DejaVuSans-30" x="95.410156"/>
      </g>
     </g>
    </g>
    <g id="text_8">
     <!-- Height (y) -->
     <g transform="translate(344.021094 412.756563) scale(0.1 -0.1)">
      <defs>
       <path id="DejaVuSans-48" d="M 628 4666 
L 1259 4666 
L 1259 2753 
L 3553 2753 
L 3553 4666 
L 4184 4666 
L 4184 0 
L 3553 0 
L 3553 2222 
L 1259 2222 
L 1259 0 
L 628 0 
L 628 4666 
z
" transform="scale(0.015625)"/>
       <path id="DejaVuSans-65" d="M 3597 1894 
L 3597 1613 
L 953 1613 
Q 991 1019 1311 708 
Q 1631 397 2203 397 
Q 2534 397 2845 478 
Q 3156 559 3463 722 
L 3463 178 
Q 3153 47 2828 -22 
Q 2503 -91 2169 -91 
Q 1331 -91 842 396 
Q 353 884 353 1716 
Q 353 2575 817 3079 
Q 1281 3584 2069 3584 
Q 2775 3584 3186 3129 
Q 3597 2675 3597 1894 
z
M 3022 2063 
Q 3016 2534 2758 2815 
Q 2500 3097 2075 3097 
Q 1594 3097 1305 2825 
Q 1016 2553 972 2059 
L 3022 2063 
z
" transform="scale(0.015625)"/>
       <path id="DejaVuSans-69" d="M 603 3500 
L 1178 3500 
L 1178 0 
L 603 0 
L 603 3500 
z
M 603 4863 
L 1178 4863 
L 1178 4134 
L 603 4134 
L 603 4863 
z
" transform="scale(0.015625)"/>
       <path id="DejaVuSans-67" d="M 2906 1791 
Q 2906 2416 2648 2759 
Q 2391 3103 1925 3103 
Q 1463 3103 1205 2759 
Q 947 2416 947 1791 
Q 947 1169 1205 825 
Q 1463 481 1925 481 
Q 2391 481 2648 825 
Q 2906 1169 2906 1791 
z
M 3481 434 
Q 3481 -459 3084 -895 
Q 2688 -1331 1869 -1331 
Q 1566 -1331 1297 -1286 
Q 1028 -1241 775 -1147 
L 775 -588 
Q 1028 -725 1275 -790 
Q 1522 -856 1778 -856 
Q 2344 -856 2625 -561 
Q 2906 -266 2906 331 
L 2906 616 
Q 2728 306 2450 153 
Q 2172 0 1784 0 
Q 1141 0 747 490 
Q 353 981 353 1791 
Q 353 2603 747 3093 
Q 1141 3584 1784 3584 
Q 2172 3584 2450 3431 
Q 2728 3278 2906 2969 
L 2906 3500 
L 3481 3500 
L 3481 434 
z
" transform="scale(0.015625)"/>
       <path id="DejaVuSans-68" d="M 3513 2113 
L 3513 0 
L 2938 0 
L 2938 2094 
Q 2938 2591 2744 2837 
Q 2550 3084 2163 3084 
Q 1697 3084 1428 2787 
Q 1159 2491 1159 1978 
L 1159 0 
L 581 0 
L 581 4863 
L 1159 4863 
L 1159 2956 
Q 1366 3272 1645 3428 
Q 1925 3584 2291 3584 
Q 2894 3584 3203 3211 
Q 3513 2838 3513 2113 
z
" transform="scale(0.015625)"/>
       <path id="DejaVuSans-74" d="M 1172 4494 
L 1172 3500 
L 2356 3500 
L 2356 3053 
L 1172 3053 
L 1172 1153 
Q 1172 725 1289 603 
Q 1406 481 1766 481 
L 2356 481 
L 2356 0 
L 1766 0 
Q 1100 0 847 248 
Q 594 497 594 1153 
L 594 3053 
L 172 3053 
L 172 3500 
L 594 3500 
L 594 4494 
L 1172 4494 
z
" transform="scale(0.015625)"/>
       <path id="DejaVuSans-20" transform="scale(0.015625)"/>
       <path id="DejaVuSans-28" d="M 1984 4856 
Q 1566 4138 1362 3434 
Q 1159 2731 1159 2009 
Q 1159 1288 1364 580 
Q 1569 -128 1984 -844 
L 1484 -844 
Q 1016 -109 783 600 
Q 550 1309 550 2009 
Q 550 2706 781 3412 
Q 1013 4119 1484 4856 
L 1984 4856 
z
" transform="scale(0.015625)"/>
       <path id="DejaVuSans-79" d="M 2059 -325 
Q 1816 -950 1584 -1140 
Q 1353 -1331 966 -1331 
L 506 -1331 
L 506 -850 
L 844 -850 
Q 1081 -850 1212 -737 
Q 1344 -625 1503 -206 
L 1606 56 
L 191 3500 
L 800 3500 
L 1894 763 
L 2988 3500 
L 3597 3500 
L 2059 -325 
z
" transform="scale(0.015625)"/>
       <path id="DejaVuSans-29" d="M 513 4856 
L 1013 4856 
Q 1481 4119 1714 3412 
Q 1947 2706 1947 2009 
Q 1947 1309 1714 600 
Q 1481 -109 1013 -844 
L 513 -844 
Q 928 -128 1133 580 
Q 1338 1288 1338 2009 
Q 1338 2731 1133 3434 
Q 928 4138 513 4856 
z
" transform="scale(0.015625)"/>
      </defs>
      <use xlink:href="#DejaVuSans-48"/>
      <use xlink:href="#DejaVuSans-65" x="75.195312"/>
      <use xlink:href="#DejaVuSans-69" x="136.71875"/>
      <use xlink:href="#DejaVuSans-67" x="164.501953"/>
      <use xlink:href="#DejaVuSans-68" x="227.978516"/>
      <use xlink:href="#DejaVuSans-74" x="291.357422"/>
      <use xlink:href="#DejaVuSans-20" x="330.566406"/>
      <use xlink:href="#DejaVuSans-28" x="362.353516"/>
      <use xlink:href="#DejaVuSans-79" x="401.367188"/>
      <use xlink:href="#DejaVuSans-29" x="460.546875"/>
     </g>
    </g>
   </g>
   <g id="matplotlib.axis_2">
    <g id="ytick_1">
     <g id="line2d_8">
      <defs>
       <path id="ma99b742378" d="M 0 0 
L -3.5 0 
" style="stroke: #000000; stroke-width: 0.8"/>
      </defs>
      <g>
       <use xlink:href="#ma99b742378" x="90" y="369.36" style="stroke: #000000; stroke-width: 0.8"/>
      </g>
     </g>
     <g id="text_9">
      <!-- 0.00 -->
      <g transform="translate(60.734375 373.159219) scale(0.1 -0.1)">
       <use xlink:href="#DejaVuSans-30"/>
       <use xlink:href="#DejaVuSans-2e" x="63.623047"/>
       <use xlink:href="#DejaVuSans-30" x="95.410156"/>
       <use xlink:href="#DejaVuSans-30" x="159.033203"/>
      </g>
     </g>
    </g>
    <g id="ytick_2">
     <g id="line2d_9">
      <g>
       <use xlink:href="#ma99b742378" x="90" y="331.56" style="stroke: #000000; stroke-width: 0.8"/>
      </g>
     </g>
     <g id="text_10">
      <!-- 0.25 -->
      <g transform="translate(60.734375 335.359219) scale(0.1 -0.1)">
       <use xlink:href="#DejaVuSans-30"/>
       <use xlink:href="#DejaVuSans-2e" x="63.623047"/>
       <use xlink:href="#DejaVuSans-32" x="95.410156"/>
       <use xlink:href="#DejaVuSans-35" x="159.033203"/>
      </g>
     </g>
    </g>
    <g id="ytick_3">
     <g id="line2d_10">
      <g>
       <use xlink:href="#ma99b742378" x="90" y="293.76" style="stroke: #000000; stroke-width: 0.8"/>
      </g>
     </g>
     <g id="text_11">
      <!-- 0.50 -->
      <g transform="translate(60.734375 297.559219) scale(0.1 -0.1)">
       <use xlink:href="#DejaVuSans-30"/>
       <use xlink:href="#DejaVuSans-2e" x="63.623047"/>
       <use xlink:href="#DejaVuSans-35" x="95.410156"/>
       <use xlink:href="#DejaVuSans-30" x="159.033203"/>
      </g>
     </g>
    </g>
    <g id="ytick_4">
     <g id="line2d_11">
      <g>
       <use xlink:href="#ma99b742378" x="90" y="255.96" style="stroke: #000000; stroke-width: 0.8"/>
      </g>
     </g>
     <g id="text_12">
      <!-- 0.75 -->
      <g transform="translate(60.734375 259.759219) scale(0.1 -0.1)">
       <defs>
        <path id="DejaVuSans-37" d="M 525 4666 
L 3525 4666 
L 3525 4397 
L 1831 0 
L 1172 0 
L 2766 4134 
L 525 4134 
L 525 4666 
z
" transform="scale(0.015625)"/>
       </defs>
       <use xlink:href="#DejaVuSans-30"/>
       <use xlink:href="#DejaVuSans-2e" x="63.623047"/>
       <use xlink:href="#DejaVuSans-37" x="95.410156"/>
       <use xlink:href="#DejaVuSans-35" x="159.033203"/>
      </g>
     </g>
    </g>
    <g id="ytick_5">
     <g id="line2d_12">
      <g>
       <use xlink:href="#ma99b742378" x="90" y="218.16" style="stroke: #000000; stroke-width: 0.8"/>
      </g>
     </g>
     <g id="text_13">
      <!-- 1.00 -->
      <g transform="translate(60.734375 221.959219) scale(0.1 -0.1)">
       <use xlink:href="#DejaVuSans-31"/>
       <use xlink:href="#DejaVuSans-2e" x="63.623047"/>
       <use xlink:href="#DejaVuSans-30" x="95.410156"/>
       <use xlink:href="#DejaVuSans-30" x="159.033203"/>
      </g>
     </g>
    </g>
    <g id="ytick_6">
     <g id="line2d_13">
      <g>
       <use xlink:href="#ma99b742378" x="90" y="180.36" style="stroke: #000000; stroke-width: 0.8"/>
      </g>
     </g>
     <g id="text_14">
      <!-- 1.25 -->
      <g transform="translate(60.734375 184.159219) scale(0.1 -0.1)">
       <use xlink:href="#DejaVuSans-31"/>
       <use xlink:href="#DejaVuSans-2e" x="63.623047"/>
       <use xlink:href="#DejaVuSans-32" x="95.410156"/>
       <use xlink:href="#DejaVuSans-35" x="159.033203"/>
      </g>
     </g>
    </g>
    <g id="ytick_7">
     <g id="line2d_14">
      <g>
       <use xlink:href="#ma99b742378" x="90" y="142.56" style="stroke: #000000; stroke-width: 0.8"/>
      </g>
     </g>
     <g id="text_15">
      <!-- 1.50 -->
      <g transform="translate(60.734375 146.359219) scale(0.1 -0.1)">
       <use xlink:href="#DejaVuSans-31"/>
       <use xlink:href="#DejaVuSans-2e" x="63.623047"/>
       <use xlink:href="#DejaVuSans-35" x="95.410156"/>
       <use xlink:href="#DejaVuSans-30" x="159.033203"/>
      </g>
     </g>
    </g>
    <g id="ytick_8">
     <g id="line2d_15">
      <g>
       <use xlink:href="#ma99b742378" x="90" y="104.76" style="stroke: #000000; stroke-width: 0.8"/>
      </g>
     </g>
     <g id="text_16">
      <!-- 1.75 -->
      <g transform="translate(60.734375 108.559219) scale(0.1 -0.1)">
       <use xlink:href="#DejaVuSans-31"/>
       <use xlink:href="#DejaVuSans-2e" x="63.623047"/>
       <use xlink:href="#DejaVuSans-37" x="95.410156"/>
       <use xlink:href="#DejaVuSans-35" x="159.033203"/>
      </g>
     </g>
    </g>
    <g id="ytick_9">
     <g id="line2d_16">
      <g>
       <use xlink:href="#ma99b742378" x="90" y="66.96" style="stroke: #000000; stroke-width: 0.8"/>
      </g>
     </g>
     <g id="text_17">
      <!-- 2.00 -->
      <g transform="translate(60.734375 70.759219) scale(0.1 -0.1)">
       <use xlink:href="#DejaVuSans-32"/>
       <use xlink:href="#DejaVuSans-2e" x="63.623047"/>
       <use xlink:href="#DejaVuSans-30" x="95.410156"/>
       <use xlink:href="#DejaVuSans-30" x="159.033203"/>
      </g>
     </g>
    </g>
    <g id="text_18">
     <!-- Vertical Cutting Force Component -->
     <g transform="translate(54.654687 302.507656) rotate(-90) scale(0.1 -0.1)">
      <defs>
       <path id="DejaVuSans-56" d="M 1831 0 
L 50 4666 
L 709 4666 
L 2188 738 
L 3669 4666 
L 4325 4666 
L 2547 0 
L 1831 0 
z
" transform="scale(0.015625)"/>
       <path id="DejaVuSans-72" d="M 2631 2963 
Q 2534 3019 2420 3045 
Q 2306 3072 2169 3072 
Q 1681 3072 1420 2755 
Q 1159 2438 1159 1844 
L 1159 0 
L 581 0 
L 581 3500 
L 1159 3500 
L 1159 2956 
Q 1341 3275 1631 3429 
Q 1922 3584 2338 3584 
Q 2397 3584 2469 3576 
Q 2541 3569 2628 3553 
L 2631 2963 
z
" transform="scale(0.015625)"/>
       <path id="DejaVuSans-63" d="M 3122 3366 
L 3122 2828 
Q 2878 2963 2633 3030 
Q 2388 3097 2138 3097 
Q 1578 3097 1268 2742 
Q 959 2388 959 1747 
Q 959 1106 1268 751 
Q 1578 397 2138 397 
Q 2388 397 2633 464 
Q 2878 531 3122 666 
L 3122 134 
Q 2881 22 2623 -34 
Q 2366 -91 2075 -91 
Q 1284 -91 818 406 
Q 353 903 353 1747 
Q 353 2603 823 3093 
Q 1294 3584 2113 3584 
Q 2378 3584 2631 3529 
Q 2884 3475 3122 3366 
z
" transform="scale(0.015625)"/>
       <path id="DejaVuSans-61" d="M 2194 1759 
Q 1497 1759 1228 1600 
Q 959 1441 959 1056 
Q 959 750 1161 570 
Q 1363 391 1709 391 
Q 2188 391 2477 730 
Q 2766 1069 2766 1631 
L 2766 1759 
L 2194 1759 
z
M 3341 1997 
L 3341 0 
L 2766 0 
L 2766 531 
Q 2569 213 2275 61 
Q 1981 -91 1556 -91 
Q 1019 -91 701 211 
Q 384 513 384 1019 
Q 384 1609 779 1909 
Q 1175 2209 1959 2209 
L 2766 2209 
L 2766 2266 
Q 2766 2663 2505 2880 
Q 2244 3097 1772 3097 
Q 1472 3097 1187 3025 
Q 903 2953 641 2809 
L 641 3341 
Q 956 3463 1253 3523 
Q 1550 3584 1831 3584 
Q 2591 3584 2966 3190 
Q 3341 2797 3341 1997 
z
" transform="scale(0.015625)"/>
       <path id="DejaVuSans-6c" d="M 603 4863 
L 1178 4863 
L 1178 0 
L 603 0 
L 603 4863 
z
" transform="scale(0.015625)"/>
       <path id="DejaVuSans-43" d="M 4122 4306 
L 4122 3641 
Q 3803 3938 3442 4084 
Q 3081 4231 2675 4231 
Q 1875 4231 1450 3742 
Q 1025 3253 1025 2328 
Q 1025 1406 1450 917 
Q 1875 428 2675 428 
Q 3081 428 3442 575 
Q 3803 722 4122 1019 
L 4122 359 
Q 3791 134 3420 21 
Q 3050 -91 2638 -91 
Q 1578 -91 968 557 
Q 359 1206 359 2328 
Q 359 3453 968 4101 
Q 1578 4750 2638 4750 
Q 3056 4750 3426 4639 
Q 3797 4528 4122 4306 
z
" transform="scale(0.015625)"/>
       <path id="DejaVuSans-75" d="M 544 1381 
L 544 3500 
L 1119 3500 
L 1119 1403 
Q 1119 906 1312 657 
Q 1506 409 1894 409 
Q 2359 409 2629 706 
Q 2900 1003 2900 1516 
L 2900 3500 
L 3475 3500 
L 3475 0 
L 2900 0 
L 2900 538 
Q 2691 219 2414 64 
Q 2138 -91 1772 -91 
Q 1169 -91 856 284 
Q 544 659 544 1381 
z
M 1991 3584 
L 1991 3584 
z
" transform="scale(0.015625)"/>
       <path id="DejaVuSans-6e" d="M 3513 2113 
L 3513 0 
L 2938 0 
L 2938 2094 
Q 2938 2591 2744 2837 
Q 2550 3084 2163 3084 
Q 1697 3084 1428 2787 
Q 1159 2491 1159 1978 
L 1159 0 
L 581 0 
L 581 3500 
L 1159 3500 
L 1159 2956 
Q 1366 3272 1645 3428 
Q 1925 3584 2291 3584 
Q 2894 3584 3203 3211 
Q 3513 2838 3513 2113 
z
" transform="scale(0.015625)"/>
       <path id="DejaVuSans-46" d="M 628 4666 
L 3309 4666 
L 3309 4134 
L 1259 4134 
L 1259 2759 
L 3109 2759 
L 3109 2228 
L 1259 2228 
L 1259 0 
L 628 0 
L 628 4666 
z
" transform="scale(0.015625)"/>
       <path id="DejaVuSans-6f" d="M 1959 3097 
Q 1497 3097 1228 2736 
Q 959 2375 959 1747 
Q 959 1119 1226 758 
Q 1494 397 1959 397 
Q 2419 397 2687 759 
Q 2956 1122 2956 1747 
Q 2956 2369 2687 2733 
Q 2419 3097 1959 3097 
z
M 1959 3584 
Q 2709 3584 3137 3096 
Q 3566 2609 3566 1747 
Q 3566 888 3137 398 
Q 2709 -91 1959 -91 
Q 1206 -91 779 398 
Q 353 888 353 1747 
Q 353 2609 779 3096 
Q 1206 3584 1959 3584 
z
" transform="scale(0.015625)"/>
       <path id="DejaVuSans-6d" d="M 3328 2828 
Q 3544 3216 3844 3400 
Q 4144 3584 4550 3584 
Q 5097 3584 5394 3201 
Q 5691 2819 5691 2113 
L 5691 0 
L 5113 0 
L 5113 2094 
Q 5113 2597 4934 2840 
Q 4756 3084 4391 3084 
Q 3944 3084 3684 2787 
Q 3425 2491 3425 1978 
L 3425 0 
L 2847 0 
L 2847 2094 
Q 2847 2600 2669 2842 
Q 2491 3084 2119 3084 
Q 1678 3084 1418 2786 
Q 1159 2488 1159 1978 
L 1159 0 
L 581 0 
L 581 3500 
L 1159 3500 
L 1159 2956 
Q 1356 3278 1631 3431 
Q 1906 3584 2284 3584 
Q 2666 3584 2933 3390 
Q 3200 3197 3328 2828 
z
" transform="scale(0.015625)"/>
       <path id="DejaVuSans-70" d="M 1159 525 
L 1159 -1331 
L 581 -1331 
L 581 3500 
L 1159 3500 
L 1159 2969 
Q 1341 3281 1617 3432 
Q 1894 3584 2278 3584 
Q 2916 3584 3314 3078 
Q 3713 2572 3713 1747 
Q 3713 922 3314 415 
Q 2916 -91 2278 -91 
Q 1894 -91 1617 61 
Q 1341 213 1159 525 
z
M 3116 1747 
Q 3116 2381 2855 2742 
Q 2594 3103 2138 3103 
Q 1681 3103 1420 2742 
Q 1159 2381 1159 1747 
Q 1159 1113 1420 752 
Q 1681 391 2138 391 
Q 2594 391 2855 752 
Q 3116 1113 3116 1747 
z
" transform="scale(0.015625)"/>
      </defs>
      <use xlink:href="#DejaVuSans-56"/>
      <use xlink:href="#DejaVuSans-65" x="60.658203"/>
      <use xlink:href="#DejaVuSans-72" x="122.181641"/>
      <use xlink:href="#DejaVuSans-74" x="163.294922"/>
      <use xlink:href="#DejaVuSans-69" x="202.503906"/>
      <use xlink:href="#DejaVuSans-63" x="230.287109"/>
      <use xlink:href="#DejaVuSans-61" x="285.267578"/>
      <use xlink:href="#DejaVuSans-6c" x="346.546875"/>
      <use xlink:href="#DejaVuSans-20" x="374.330078"/>
      <use xlink:href="#DejaVuSans-43" x="406.117188"/>
      <use xlink:href="#DejaVuSans-75" x="475.941406"/>
      <use xlink:href="#DejaVuSans-74" x="539.320312"/>
      <use xlink:href="#DejaVuSans-74" x="578.529297"/>
      <use xlink:href="#DejaVuSans-69" x="617.738281"/>
      <use xlink:href="#DejaVuSans-6e" x="645.521484"/>
      <use xlink:href="#DejaVuSans-67" x="708.900391"/>
      <use xlink:href="#DejaVuSans-20" x="772.376953"/>
      <use xlink:href="#DejaVuSans-46" x="804.164062"/>
      <use xlink:href="#DejaVuSans-6f" x="858.058594"/>
      <use xlink:href="#DejaVuSans-72" x="919.240234"/>
      <use xlink:href="#DejaVuSans-63" x="958.103516"/>
      <use xlink:href="#DejaVuSans-65" x="1013.083984"/>
      <use xlink:href="#DejaVuSans-20" x="1074.607422"/>
      <use xlink:href="#DejaVuSans-43" x="1106.394531"/>
      <use xlink:href="#DejaVuSans-6f" x="1176.21875"/>
      <use xlink:href="#DejaVuSans-6d" x="1237.400391"/>
      <use xlink:href="#DejaVuSans-70" x="1334.8125"/>
      <use xlink:href="#DejaVuSans-6f" x="1398.289062"/>
      <use xlink:href="#DejaVuSans-6e" x="1459.470703"/>
      <use xlink:href="#DejaVuSans-65" x="1522.849609"/>
      <use xlink:href="#DejaVuSans-6e" x="1584.373047"/>
      <use xlink:href="#DejaVuSans-74" x="1647.751953"/>
     </g>
    </g>
   </g>
   <g id="line2d_17">
    <path d="M 115.363636 369.36 
L 116.21121 339.120095 
L 117.058783 326.648076 
L 117.906357 317.114714 
L 119.601504 302.082166 
L 121.296651 289.958092 
L 122.991798 279.556669 
L 124.686945 270.333577 
L 127.229665 258.075861 
L 129.772386 247.209562 
L 132.315106 237.390525 
L 134.857826 228.399729 
L 137.400547 220.087441 
L 140.790841 209.877624 
L 144.181135 200.50078 
L 147.571429 191.824877 
L 150.961722 183.751594 
L 154.352016 176.205356 
L 157.74231 169.126563 
L 161.980178 160.863172 
L 166.218045 153.180573 
L 170.455913 146.018824 
L 174.69378 139.329271 
L 178.931647 133.071806 
L 183.169515 127.212928 
L 187.407382 121.724346 
L 191.645249 116.581937 
L 195.883117 111.764969 
L 200.120984 107.255498 
L 204.358852 103.037903 
L 208.596719 99.09852 
L 212.834586 95.425345 
L 217.072454 92.007802 
L 221.310321 88.836548 
L 225.548189 85.903316 
L 229.786056 83.200786 
L 234.023923 80.722478 
L 238.261791 78.462663 
L 242.499658 76.416282 
L 246.737526 74.578891 
L 250.975393 72.946603 
L 255.21326 71.516047 
L 259.451128 70.284327 
L 263.688995 69.248996 
L 267.926863 68.408026 
L 272.16473 67.759791 
L 276.402597 67.303052 
L 280.640465 67.036939 
L 284.878332 66.96095 
L 289.1162 67.074941 
L 293.354067 67.379127 
L 297.591934 67.874084 
L 301.829802 68.560754 
L 306.067669 69.440454 
L 310.305537 70.514888 
L 314.543404 71.786165 
L 318.781271 73.256821 
L 323.019139 74.929844 
L 327.257006 76.808705 
L 331.494874 78.897398 
L 335.732741 81.200487 
L 339.970608 83.723158 
L 344.208476 86.471284 
L 348.446343 89.451507 
L 352.684211 92.671325 
L 356.922078 96.13921 
L 361.159945 99.864738 
L 365.397813 103.858753 
L 369.63568 108.133572 
L 373.873548 112.703225 
L 378.111415 117.583764 
L 382.349282 122.79365 
L 386.58715 128.35424 
L 390.825017 134.290422 
L 395.062884 140.631437 
L 399.300752 147.411979 
L 403.538619 154.67369 
L 407.776487 162.46723 
L 411.166781 169.126563 
L 414.557075 176.205356 
L 417.947368 183.751594 
L 421.337662 191.824877 
L 424.727956 200.50078 
L 428.11825 209.877624 
L 431.508544 220.087441 
L 434.051265 228.399729 
L 436.593985 237.390525 
L 439.136705 247.209562 
L 441.679426 258.075861 
L 443.374573 266.063646 
L 445.06972 274.820416 
L 446.764867 284.584129 
L 448.460014 295.754412 
L 450.155161 309.10856 
L 451.002734 317.114714 
L 451.850308 326.648076 
L 452.697881 339.120095 
L 453.545455 369.36 
L 453.545455 369.36 
" clip-path="url(#pf2549e3bd5)" style="fill: none; stroke: #1f77b4; stroke-width: 1.5; stroke-linecap: square"/>
   </g>
   <g id="line2d_18">
    <path d="M 115.363636 369.36 
L 118.75393 359.156543 
L 122.991798 347.146256 
L 127.229665 335.833118 
L 131.467532 325.113868 
L 136.552973 312.925974 
L 141.638414 301.378588 
L 146.723855 290.392923 
L 151.809296 279.907171 
L 156.894737 269.871799 
L 162.827751 258.679604 
L 168.760766 247.993335 
L 174.69378 237.770299 
L 180.626794 227.975225 
L 186.559809 218.578644 
L 192.492823 209.555705 
L 199.273411 199.674353 
L 206.053999 190.226869 
L 212.834586 181.190832 
L 219.615174 172.547328 
L 226.395762 164.280377 
L 233.17635 156.376496 
L 239.956938 148.824352 
L 246.737526 141.614494 
L 253.518113 134.739143 
L 260.298701 128.192025 
L 267.079289 121.968248 
L 273.859877 116.064201 
L 280.640465 110.477492 
L 287.421053 105.2069 
L 294.20164 100.252354 
L 300.134655 96.177199 
L 306.067669 92.346277 
L 312.000684 88.761746 
L 317.933698 85.426498 
L 323.866712 82.344205 
L 329.799727 79.519372 
L 335.732741 76.957408 
L 341.665755 74.664716 
L 346.751196 72.919523 
L 351.836637 71.383096 
L 356.922078 70.06162 
L 362.007519 68.962117 
L 367.09296 68.092552 
L 372.178401 67.461973 
L 377.263841 67.080671 
L 382.349282 66.960386 
L 386.58715 67.069171 
L 390.825017 67.377338 
L 395.062884 67.894837 
L 399.300752 68.632933 
L 403.538619 69.604444 
L 407.776487 70.824039 
L 412.014354 72.308614 
L 416.252221 74.077778 
L 419.642515 75.713305 
L 423.032809 77.559211 
L 426.423103 79.631192 
L 429.813397 81.947468 
L 433.203691 84.529387 
L 436.593985 87.402229 
L 439.984279 90.596301 
L 443.374573 94.148459 
L 446.764867 98.104288 
L 449.307587 101.370098 
L 451.850308 104.92517 
L 453.545455 107.473918 
L 453.545455 107.473918 
L 456.561216 122.014893 
L 459.445858 137.036209 
L 462.133819 152.213594 
L 464.690661 167.947372 
L 467.050822 183.875235 
L 469.214303 199.992771 
L 471.181104 216.299879 
L 472.951225 232.80332 
L 474.524666 249.521487 
L 475.901427 266.494118 
L 477.081508 283.804287 
L 478.064908 301.636582 
L 478.786069 318.633462 
L 479.310549 336.12934 
L 479.572789 350.167822 
L 479.703909 369.36 
L 479.703909 369.36 
" clip-path="url(#pf2549e3bd5)" style="fill: none; stroke: #ff7f0e; stroke-width: 1.5; stroke-linecap: square"/>
   </g>
   <g id="line2d_19">
    <path d="M 115.363636 369.36 
L 122.144224 357.467619 
L 128.924812 346.010193 
L 136.552973 333.588462 
L 144.181135 321.615948 
L 151.809296 310.053627 
L 159.437457 298.869487 
L 167.913192 286.85404 
L 176.388927 275.242482 
L 184.864662 264.009677 
L 193.340396 253.134623 
L 201.816131 242.59969 
L 210.291866 232.39004 
L 219.615174 221.520285 
L 228.938483 211.015227 
L 238.261791 200.863559 
L 247.585099 191.056172 
L 256.908407 181.585917 
L 266.231716 172.447416 
L 275.555024 163.636937 
L 284.878332 155.152298 
L 294.20164 146.992824 
L 302.677375 139.857943 
L 311.15311 132.994134 
L 319.628845 126.404149 
L 328.10458 120.09185 
L 336.580314 114.062294 
L 345.056049 108.321835 
L 352.684211 103.409005 
L 360.312372 98.743419 
L 367.940533 94.333057 
L 375.568694 90.187255 
L 383.196856 86.316914 
L 389.977444 83.11811 
L 396.758031 80.157348 
L 403.538619 77.446577 
L 410.319207 74.999624 
L 416.252221 73.087534 
L 422.185236 71.402183 
L 428.11825 69.957973 
L 434.051265 68.771647 
L 439.136705 67.974831 
L 444.222146 67.396251 
L 449.307587 67.05268 
L 453.545455 66.96 
L 453.545455 66.96 
L 458.109448 75.348694 
L 462.497904 83.866902 
L 466.886359 92.869892 
L 471.099276 102.014279 
L 475.312193 111.702947 
L 479.349572 121.557689 
L 483.211413 131.570556 
L 486.897715 141.73384 
L 490.40848 152.040074 
L 493.919244 163.051033 
L 497.25447 174.272761 
L 500.414158 185.713309 
L 503.398308 197.385401 
L 506.206919 209.308288 
L 508.839992 221.510649 
L 511.121989 233.0978 
L 513.228448 244.864971 
L 515.159368 256.837107 
L 516.91475 269.055168 
L 518.494594 281.588142 
L 519.8989 294.558648 
L 521.127667 308.205935 
L 522.005358 320.282463 
L 522.707511 332.752832 
L 523.234126 346.194828 
L 523.409664 352.976742 
L 523.585202 369.36 
L 523.585202 369.36 
" clip-path="url(#pf2549e3bd5)" style="fill: none; stroke: #2ca02c; stroke-width: 1.5; stroke-linecap: square"/>
   </g>
   <g id="line2d_20">
    <path d="M 115.363636 369.36 
L 128.077239 356.393452 
L 140.790841 343.733783 
L 154.352016 330.547504 
L 167.913192 317.670661 
L 181.474368 305.087946 
L 195.883117 292.027041 
L 210.291866 279.271688 
L 224.700615 266.812049 
L 239.109364 254.640416 
L 253.518113 242.750974 
L 267.926863 231.139622 
L 282.335612 219.803858 
L 296.744361 208.742711 
L 311.15311 197.956711 
L 325.561859 187.447902 
L 339.970608 177.219907 
L 353.531784 167.854798 
L 367.09296 158.749006 
L 380.654135 149.910023 
L 394.215311 141.347154 
L 406.928913 133.580342 
L 419.642515 126.077581 
L 431.508544 119.325236 
L 443.374573 112.828017 
L 453.545455 107.473918 
L 453.545455 107.473918 
L 461.173616 111.532331 
L 468.801777 115.839113 
L 476.429938 120.407153 
L 483.634313 124.974495 
L 490.838688 129.802014 
L 498.043062 134.905781 
L 504.82365 139.978178 
L 511.604238 145.329341 
L 517.961039 150.617412 
L 524.31784 156.188043 
L 530.674641 162.064013 
L 536.607656 167.847277 
L 542.54067 173.945473 
L 548.049897 179.916634 
L 553.559125 186.214694 
L 558.644566 192.348577 
L 563.730007 198.824 
L 568.815448 205.681493 
L 573.477102 212.345866 
L 578.138756 219.421774 
L 582.376623 226.26283 
L 586.614491 233.553489 
L 590.428571 240.562484 
L 594.242652 248.071384 
L 597.632946 255.245236 
L 601.02324 262.987779 
L 603.989747 270.333577 
L 606.532468 277.155011 
L 609.075188 284.584129 
L 611.194122 291.364015 
L 613.313055 298.843199 
L 615.431989 307.273894 
L 617.127136 314.99855 
L 618.398496 321.636698 
L 619.669856 329.394075 
L 620.51743 335.561379 
L 621.365003 343.16325 
L 621.78879 347.963731 
L 622.212577 354.225808 
L 622.636364 369.36 
L 622.636364 369.36 
" clip-path="url(#pf2549e3bd5)" style="fill: none; stroke: #d62728; stroke-width: 1.5; stroke-linecap: square"/>
   </g>
   <g id="patch_3">
    <path d="M 90 384.48 
L 90 51.84 
" style="fill: none; stroke: #000000; stroke-width: 0.8; stroke-linejoin: miter; stroke-linecap: square"/>
   </g>
   <g id="patch_4">
    <path d="M 648 384.48 
L 648 51.84 
" style="fill: none; stroke: #000000; stroke-width: 0.8; stroke-linejoin: miter; stroke-linecap: square"/>
   </g>
   <g id="patch_5">
    <path d="M 90 384.48 
L 648 384.48 
" style="fill: none; stroke: #000000; stroke-width: 0.8; stroke-linejoin: miter; stroke-linecap: square"/>
   </g>
   <g id="patch_6">
    <path d="M 90 51.84 
L 648 51.84 
" style="fill: none; stroke: #000000; stroke-width: 0.8; stroke-linejoin: miter; stroke-linecap: square"/>
   </g>
   <g id="text_19">
    <!-- Vertical Component of Cutting Force as a Function of Height for Different Angles -->
    <g transform="translate(128.390625 45.84) scale(0.12 -0.12)">
     <defs>
      <path id="DejaVuSans-66" d="M 2375 4863 
L 2375 4384 
L 1825 4384 
Q 1516 4384 1395 4259 
Q 1275 4134 1275 3809 
L 1275 3500 
L 2222 3500 
L 2222 3053 
L 1275 3053 
L 1275 0 
L 697 0 
L 697 3053 
L 147 3053 
L 147 3500 
L 697 3500 
L 697 3744 
Q 697 4328 969 4595 
Q 1241 4863 1831 4863 
L 2375 4863 
z
" transform="scale(0.015625)"/>
      <path id="DejaVuSans-73" d="M 2834 3397 
L 2834 2853 
Q 2591 2978 2328 3040 
Q 2066 3103 1784 3103 
Q 1356 3103 1142 2972 
Q 928 2841 928 2578 
Q 928 2378 1081 2264 
Q 1234 2150 1697 2047 
L 1894 2003 
Q 2506 1872 2764 1633 
Q 3022 1394 3022 966 
Q 3022 478 2636 193 
Q 2250 -91 1575 -91 
Q 1294 -91 989 -36 
Q 684 19 347 128 
L 347 722 
Q 666 556 975 473 
Q 1284 391 1588 391 
Q 1994 391 2212 530 
Q 2431 669 2431 922 
Q 2431 1156 2273 1281 
Q 2116 1406 1581 1522 
L 1381 1569 
Q 847 1681 609 1914 
Q 372 2147 372 2553 
Q 372 3047 722 3315 
Q 1072 3584 1716 3584 
Q 2034 3584 2315 3537 
Q 2597 3491 2834 3397 
z
" transform="scale(0.015625)"/>
      <path id="DejaVuSans-44" d="M 1259 4147 
L 1259 519 
L 2022 519 
Q 2988 519 3436 956 
Q 3884 1394 3884 2338 
Q 3884 3275 3436 3711 
Q 2988 4147 2022 4147 
L 1259 4147 
z
M 628 4666 
L 1925 4666 
Q 3281 4666 3915 4102 
Q 4550 3538 4550 2338 
Q 4550 1131 3912 565 
Q 3275 0 1925 0 
L 628 0 
L 628 4666 
z
" transform="scale(0.015625)"/>
      <path id="DejaVuSans-41" d="M 2188 4044 
L 1331 1722 
L 3047 1722 
L 2188 4044 
z
M 1831 4666 
L 2547 4666 
L 4325 0 
L 3669 0 
L 3244 1197 
L 1141 1197 
L 716 0 
L 50 0 
L 1831 4666 
z
" transform="scale(0.015625)"/>
     </defs>
     <use xlink:href="#DejaVuSans-56"/>
     <use xlink:href="#DejaVuSans-65" x="60.658203"/>
     <use xlink:href="#DejaVuSans-72" x="122.181641"/>
     <use xlink:href="#DejaVuSans-74" x="163.294922"/>
     <use xlink:href="#DejaVuSans-69" x="202.503906"/>
     <use xlink:href="#DejaVuSans-63" x="230.287109"/>
     <use xlink:href="#DejaVuSans-61" x="285.267578"/>
     <use xlink:href="#DejaVuSans-6c" x="346.546875"/>
     <use xlink:href="#DejaVuSans-20" x="374.330078"/>
     <use xlink:href="#DejaVuSans-43" x="406.117188"/>
     <use xlink:href="#DejaVuSans-6f" x="475.941406"/>
     <use xlink:href="#DejaVuSans-6d" x="537.123047"/>
     <use xlink:href="#DejaVuSans-70" x="634.535156"/>
     <use xlink:href="#DejaVuSans-6f" x="698.011719"/>
     <use xlink:href="#DejaVuSans-6e" x="759.193359"/>
     <use xlink:href="#DejaVuSans-65" x="822.572266"/>
     <use xlink:href="#DejaVuSans-6e" x="884.095703"/>
     <use xlink:href="#DejaVuSans-74" x="947.474609"/>
     <use xlink:href="#DejaVuSans-20" x="986.683594"/>
     <use xlink:href="#DejaVuSans-6f" x="1018.470703"/>
     <use xlink:href="#DejaVuSans-66" x="1079.652344"/>
     <use xlink:href="#DejaVuSans-20" x="1114.857422"/>
     <use xlink:href="#DejaVuSans-43" x="1146.644531"/>
     <use xlink:href="#DejaVuSans-75" x="1216.46875"/>
     <use xlink:href="#DejaVuSans-74" x="1279.847656"/>
     <use xlink:href="#DejaVuSans-74" x="1319.056641"/>
     <use xlink:href="#DejaVuSans-69" x="1358.265625"/>
     <use xlink:href="#DejaVuSans-6e" x="1386.048828"/>
     <use xlink:href="#DejaVuSans-67" x="1449.427734"/>
     <use xlink:href="#DejaVuSans-20" x="1512.904297"/>
     <use xlink:href="#DejaVuSans-46" x="1544.691406"/>
     <use xlink:href="#DejaVuSans-6f" x="1598.585938"/>
     <use xlink:href="#DejaVuSans-72" x="1659.767578"/>
     <use xlink:href="#DejaVuSans-63" x="1698.630859"/>
     <use xlink:href="#DejaVuSans-65" x="1753.611328"/>
     <use xlink:href="#DejaVuSans-20" x="1815.134766"/>
     <use xlink:href="#DejaVuSans-61" x="1846.921875"/>
     <use xlink:href="#DejaVuSans-73" x="1908.201172"/>
     <use xlink:href="#DejaVuSans-20" x="1960.300781"/>
     <use xlink:href="#DejaVuSans-61" x="1992.087891"/>
     <use xlink:href="#DejaVuSans-20" x="2053.367188"/>
     <use xlink:href="#DejaVuSans-46" x="2085.154297"/>
     <use xlink:href="#DejaVuSans-75" x="2137.173828"/>
     <use xlink:href="#DejaVuSans-6e" x="2200.552734"/>
     <use xlink:href="#DejaVuSans-63" x="2263.931641"/>
     <use xlink:href="#DejaVuSans-74" x="2318.912109"/>
     <use xlink:href="#DejaVuSans-69" x="2358.121094"/>
     <use xlink:href="#DejaVuSans-6f" x="2385.904297"/>
     <use xlink:href="#DejaVuSans-6e" x="2447.085938"/>
     <use xlink:href="#DejaVuSans-20" x="2510.464844"/>
     <use xlink:href="#DejaVuSans-6f" x="2542.251953"/>
     <use xlink:href="#DejaVuSans-66" x="2603.433594"/>
     <use xlink:href="#DejaVuSans-20" x="2638.638672"/>
     <use xlink:href="#DejaVuSans-48" x="2670.425781"/>
     <use xlink:href="#DejaVuSans-65" x="2745.621094"/>
     <use xlink:href="#DejaVuSans-69" x="2807.144531"/>
     <use xlink:href="#DejaVuSans-67" x="2834.927734"/>
     <use xlink:href="#DejaVuSans-68" x="2898.404297"/>
     <use xlink:href="#DejaVuSans-74" x="2961.783203"/>
     <use xlink:href="#DejaVuSans-20" x="3000.992188"/>
     <use xlink:href="#DejaVuSans-66" x="3032.779297"/>
     <use xlink:href="#DejaVuSans-6f" x="3067.984375"/>
     <use xlink:href="#DejaVuSans-72" x="3129.166016"/>
     <use xlink:href="#DejaVuSans-20" x="3170.279297"/>
     <use xlink:href="#DejaVuSans-44" x="3202.066406"/>
     <use xlink:href="#DejaVuSans-69" x="3279.068359"/>
     <use xlink:href="#DejaVuSans-66" x="3306.851562"/>
     <use xlink:href="#DejaVuSans-66" x="3342.056641"/>
     <use xlink:href="#DejaVuSans-65" x="3377.261719"/>
     <use xlink:href="#DejaVuSans-72" x="3438.785156"/>
     <use xlink:href="#DejaVuSans-65" x="3477.648438"/>
     <use xlink:href="#DejaVuSans-6e" x="3539.171875"/>
     <use xlink:href="#DejaVuSans-74" x="3602.550781"/>
     <use xlink:href="#DejaVuSans-20" x="3641.759766"/>
     <use xlink:href="#DejaVuSans-41" x="3673.546875"/>
     <use xlink:href="#DejaVuSans-6e" x="3741.955078"/>
     <use xlink:href="#DejaVuSans-67" x="3805.333984"/>
     <use xlink:href="#DejaVuSans-6c" x="3868.810547"/>
     <use xlink:href="#DejaVuSans-65" x="3896.59375"/>
     <use xlink:href="#DejaVuSans-73" x="3958.117188"/>
    </g>
   </g>
   <g id="legend_1">
    <g id="patch_7">
     <path d="M 474.253125 118.5525 
L 641 118.5525 
Q 643 118.5525 643 116.5525 
L 643 58.84 
Q 643 56.84 641 56.84 
L 474.253125 56.84 
Q 472.253125 56.84 472.253125 58.84 
L 472.253125 116.5525 
Q 472.253125 118.5525 474.253125 118.5525 
z
" style="fill: #ffffff; opacity: 0.8; stroke: #cccccc; stroke-linejoin: miter"/>
    </g>
    <g id="line2d_21">
     <path d="M 476.253125 64.938438 
L 486.253125 64.938438 
L 496.253125 64.938438 
" style="fill: none; stroke: #1f77b4; stroke-width: 1.5; stroke-linecap: square"/>
    </g>
    <g id="text_20">
     <!-- Pointy Blade at 0 degrees -->
     <g transform="translate(504.253125 68.438438) scale(0.1 -0.1)">
      <defs>
       <path id="DejaVuSans-50" d="M 1259 4147 
L 1259 2394 
L 2053 2394 
Q 2494 2394 2734 2622 
Q 2975 2850 2975 3272 
Q 2975 3691 2734 3919 
Q 2494 4147 2053 4147 
L 1259 4147 
z
M 628 4666 
L 2053 4666 
Q 2838 4666 3239 4311 
Q 3641 3956 3641 3272 
Q 3641 2581 3239 2228 
Q 2838 1875 2053 1875 
L 1259 1875 
L 1259 0 
L 628 0 
L 628 4666 
z
" transform="scale(0.015625)"/>
       <path id="DejaVuSans-42" d="M 1259 2228 
L 1259 519 
L 2272 519 
Q 2781 519 3026 730 
Q 3272 941 3272 1375 
Q 3272 1813 3026 2020 
Q 2781 2228 2272 2228 
L 1259 2228 
z
M 1259 4147 
L 1259 2741 
L 2194 2741 
Q 2656 2741 2882 2914 
Q 3109 3088 3109 3444 
Q 3109 3797 2882 3972 
Q 2656 4147 2194 4147 
L 1259 4147 
z
M 628 4666 
L 2241 4666 
Q 2963 4666 3353 4366 
Q 3744 4066 3744 3513 
Q 3744 3084 3544 2831 
Q 3344 2578 2956 2516 
Q 3422 2416 3680 2098 
Q 3938 1781 3938 1306 
Q 3938 681 3513 340 
Q 3088 0 2303 0 
L 628 0 
L 628 4666 
z
" transform="scale(0.015625)"/>
       <path id="DejaVuSans-64" d="M 2906 2969 
L 2906 4863 
L 3481 4863 
L 3481 0 
L 2906 0 
L 2906 525 
Q 2725 213 2448 61 
Q 2172 -91 1784 -91 
Q 1150 -91 751 415 
Q 353 922 353 1747 
Q 353 2572 751 3078 
Q 1150 3584 1784 3584 
Q 2172 3584 2448 3432 
Q 2725 3281 2906 2969 
z
M 947 1747 
Q 947 1113 1208 752 
Q 1469 391 1925 391 
Q 2381 391 2643 752 
Q 2906 1113 2906 1747 
Q 2906 2381 2643 2742 
Q 2381 3103 1925 3103 
Q 1469 3103 1208 2742 
Q 947 2381 947 1747 
z
" transform="scale(0.015625)"/>
      </defs>
      <use xlink:href="#DejaVuSans-50"/>
      <use xlink:href="#DejaVuSans-6f" x="56.677734"/>
      <use xlink:href="#DejaVuSans-69" x="117.859375"/>
      <use xlink:href="#DejaVuSans-6e" x="145.642578"/>
      <use xlink:href="#DejaVuSans-74" x="209.021484"/>
      <use xlink:href="#DejaVuSans-79" x="248.230469"/>
      <use xlink:href="#DejaVuSans-20" x="307.410156"/>
      <use xlink:href="#DejaVuSans-42" x="339.197266"/>
      <use xlink:href="#DejaVuSans-6c" x="407.800781"/>
      <use xlink:href="#DejaVuSans-61" x="435.583984"/>
      <use xlink:href="#DejaVuSans-64" x="496.863281"/>
      <use xlink:href="#DejaVuSans-65" x="560.339844"/>
      <use xlink:href="#DejaVuSans-20" x="621.863281"/>
      <use xlink:href="#DejaVuSans-61" x="653.650391"/>
      <use xlink:href="#DejaVuSans-74" x="714.929688"/>
      <use xlink:href="#DejaVuSans-20" x="754.138672"/>
      <use xlink:href="#DejaVuSans-30" x="785.925781"/>
      <use xlink:href="#DejaVuSans-20" x="849.548828"/>
      <use xlink:href="#DejaVuSans-64" x="881.335938"/>
      <use xlink:href="#DejaVuSans-65" x="944.8125"/>
      <use xlink:href="#DejaVuSans-67" x="1006.335938"/>
      <use xlink:href="#DejaVuSans-72" x="1069.8125"/>
      <use xlink:href="#DejaVuSans-65" x="1108.675781"/>
      <use xlink:href="#DejaVuSans-65" x="1170.199219"/>
      <use xlink:href="#DejaVuSans-73" x="1231.722656"/>
     </g>
    </g>
    <g id="line2d_22">
     <path d="M 476.253125 79.616563 
L 486.253125 79.616563 
L 496.253125 79.616563 
" style="fill: none; stroke: #ff7f0e; stroke-width: 1.5; stroke-linecap: square"/>
    </g>
    <g id="text_21">
     <!-- Pointy Blade at 30 degrees -->
     <g transform="translate(504.253125 83.116563) scale(0.1 -0.1)">
      <defs>
       <path id="DejaVuSans-33" d="M 2597 2516 
Q 3050 2419 3304 2112 
Q 3559 1806 3559 1356 
Q 3559 666 3084 287 
Q 2609 -91 1734 -91 
Q 1441 -91 1130 -33 
Q 819 25 488 141 
L 488 750 
Q 750 597 1062 519 
Q 1375 441 1716 441 
Q 2309 441 2620 675 
Q 2931 909 2931 1356 
Q 2931 1769 2642 2001 
Q 2353 2234 1838 2234 
L 1294 2234 
L 1294 2753 
L 1863 2753 
Q 2328 2753 2575 2939 
Q 2822 3125 2822 3475 
Q 2822 3834 2567 4026 
Q 2313 4219 1838 4219 
Q 1578 4219 1281 4162 
Q 984 4106 628 3988 
L 628 4550 
Q 988 4650 1302 4700 
Q 1616 4750 1894 4750 
Q 2613 4750 3031 4423 
Q 3450 4097 3450 3541 
Q 3450 3153 3228 2886 
Q 3006 2619 2597 2516 
z
" transform="scale(0.015625)"/>
      </defs>
      <use xlink:href="#DejaVuSans-50"/>
      <use xlink:href="#DejaVuSans-6f" x="56.677734"/>
      <use xlink:href="#DejaVuSans-69" x="117.859375"/>
      <use xlink:href="#DejaVuSans-6e" x="145.642578"/>
      <use xlink:href="#DejaVuSans-74" x="209.021484"/>
      <use xlink:href="#DejaVuSans-79" x="248.230469"/>
      <use xlink:href="#DejaVuSans-20" x="307.410156"/>
      <use xlink:href="#DejaVuSans-42" x="339.197266"/>
      <use xlink:href="#DejaVuSans-6c" x="407.800781"/>
      <use xlink:href="#DejaVuSans-61" x="435.583984"/>
      <use xlink:href="#DejaVuSans-64" x="496.863281"/>
      <use xlink:href="#DejaVuSans-65" x="560.339844"/>
      <use xlink:href="#DejaVuSans-20" x="621.863281"/>
      <use xlink:href="#DejaVuSans-61" x="653.650391"/>
      <use xlink:href="#DejaVuSans-74" x="714.929688"/>
      <use xlink:href="#DejaVuSans-20" x="754.138672"/>
      <use xlink:href="#DejaVuSans-33" x="785.925781"/>
      <use xlink:href="#DejaVuSans-30" x="849.548828"/>
      <use xlink:href="#DejaVuSans-20" x="913.171875"/>
      <use xlink:href="#DejaVuSans-64" x="944.958984"/>
      <use xlink:href="#DejaVuSans-65" x="1008.435547"/>
      <use xlink:href="#DejaVuSans-67" x="1069.958984"/>
      <use xlink:href="#DejaVuSans-72" x="1133.435547"/>
      <use xlink:href="#DejaVuSans-65" x="1172.298828"/>
      <use xlink:href="#DejaVuSans-65" x="1233.822266"/>
      <use xlink:href="#DejaVuSans-73" x="1295.345703"/>
     </g>
    </g>
    <g id="line2d_23">
     <path d="M 476.253125 94.294688 
L 486.253125 94.294688 
L 496.253125 94.294688 
" style="fill: none; stroke: #2ca02c; stroke-width: 1.5; stroke-linecap: square"/>
    </g>
    <g id="text_22">
     <!-- Pointy Blade at 45 degrees -->
     <g transform="translate(504.253125 97.794688) scale(0.1 -0.1)">
      <defs>
       <path id="DejaVuSans-34" d="M 2419 4116 
L 825 1625 
L 2419 1625 
L 2419 4116 
z
M 2253 4666 
L 3047 4666 
L 3047 1625 
L 3713 1625 
L 3713 1100 
L 3047 1100 
L 3047 0 
L 2419 0 
L 2419 1100 
L 313 1100 
L 313 1709 
L 2253 4666 
z
" transform="scale(0.015625)"/>
      </defs>
      <use xlink:href="#DejaVuSans-50"/>
      <use xlink:href="#DejaVuSans-6f" x="56.677734"/>
      <use xlink:href="#DejaVuSans-69" x="117.859375"/>
      <use xlink:href="#DejaVuSans-6e" x="145.642578"/>
      <use xlink:href="#DejaVuSans-74" x="209.021484"/>
      <use xlink:href="#DejaVuSans-79" x="248.230469"/>
      <use xlink:href="#DejaVuSans-20" x="307.410156"/>
      <use xlink:href="#DejaVuSans-42" x="339.197266"/>
      <use xlink:href="#DejaVuSans-6c" x="407.800781"/>
      <use xlink:href="#DejaVuSans-61" x="435.583984"/>
      <use xlink:href="#DejaVuSans-64" x="496.863281"/>
      <use xlink:href="#DejaVuSans-65" x="560.339844"/>
      <use xlink:href="#DejaVuSans-20" x="621.863281"/>
      <use xlink:href="#DejaVuSans-61" x="653.650391"/>
      <use xlink:href="#DejaVuSans-74" x="714.929688"/>
      <use xlink:href="#DejaVuSans-20" x="754.138672"/>
      <use xlink:href="#DejaVuSans-34" x="785.925781"/>
      <use xlink:href="#DejaVuSans-35" x="849.548828"/>
      <use xlink:href="#DejaVuSans-20" x="913.171875"/>
      <use xlink:href="#DejaVuSans-64" x="944.958984"/>
      <use xlink:href="#DejaVuSans-65" x="1008.435547"/>
      <use xlink:href="#DejaVuSans-67" x="1069.958984"/>
      <use xlink:href="#DejaVuSans-72" x="1133.435547"/>
      <use xlink:href="#DejaVuSans-65" x="1172.298828"/>
      <use xlink:href="#DejaVuSans-65" x="1233.822266"/>
      <use xlink:href="#DejaVuSans-73" x="1295.345703"/>
     </g>
    </g>
    <g id="line2d_24">
     <path d="M 476.253125 108.972813 
L 486.253125 108.972813 
L 496.253125 108.972813 
" style="fill: none; stroke: #d62728; stroke-width: 1.5; stroke-linecap: square"/>
    </g>
    <g id="text_23">
     <!-- Pointy Blade at 60 degrees -->
     <g transform="translate(504.253125 112.472813) scale(0.1 -0.1)">
      <defs>
       <path id="DejaVuSans-36" d="M 2113 2584 
Q 1688 2584 1439 2293 
Q 1191 2003 1191 1497 
Q 1191 994 1439 701 
Q 1688 409 2113 409 
Q 2538 409 2786 701 
Q 3034 994 3034 1497 
Q 3034 2003 2786 2293 
Q 2538 2584 2113 2584 
z
M 3366 4563 
L 3366 3988 
Q 3128 4100 2886 4159 
Q 2644 4219 2406 4219 
Q 1781 4219 1451 3797 
Q 1122 3375 1075 2522 
Q 1259 2794 1537 2939 
Q 1816 3084 2150 3084 
Q 2853 3084 3261 2657 
Q 3669 2231 3669 1497 
Q 3669 778 3244 343 
Q 2819 -91 2113 -91 
Q 1303 -91 875 529 
Q 447 1150 447 2328 
Q 447 3434 972 4092 
Q 1497 4750 2381 4750 
Q 2619 4750 2861 4703 
Q 3103 4656 3366 4563 
z
" transform="scale(0.015625)"/>
      </defs>
      <use xlink:href="#DejaVuSans-50"/>
      <use xlink:href="#DejaVuSans-6f" x="56.677734"/>
      <use xlink:href="#DejaVuSans-69" x="117.859375"/>
      <use xlink:href="#DejaVuSans-6e" x="145.642578"/>
      <use xlink:href="#DejaVuSans-74" x="209.021484"/>
      <use xlink:href="#DejaVuSans-79" x="248.230469"/>
      <use xlink:href="#DejaVuSans-20" x="307.410156"/>
      <use xlink:href="#DejaVuSans-42" x="339.197266"/>
      <use xlink:href="#DejaVuSans-6c" x="407.800781"/>
      <use xlink:href="#DejaVuSans-61" x="435.583984"/>
      <use xlink:href="#DejaVuSans-64" x="496.863281"/>
      <use xlink:href="#DejaVuSans-65" x="560.339844"/>
      <use xlink:href="#DejaVuSans-20" x="621.863281"/>
      <use xlink:href="#DejaVuSans-61" x="653.650391"/>
      <use xlink:href="#DejaVuSans-74" x="714.929688"/>
      <use xlink:href="#DejaVuSans-20" x="754.138672"/>
      <use xlink:href="#DejaVuSans-36" x="785.925781"/>
      <use xlink:href="#DejaVuSans-30" x="849.548828"/>
      <use xlink:href="#DejaVuSans-20" x="913.171875"/>
      <use xlink:href="#DejaVuSans-64" x="944.958984"/>
      <use xlink:href="#DejaVuSans-65" x="1008.435547"/>
      <use xlink:href="#DejaVuSans-67" x="1069.958984"/>
      <use xlink:href="#DejaVuSans-72" x="1133.435547"/>
      <use xlink:href="#DejaVuSans-65" x="1172.298828"/>
      <use xlink:href="#DejaVuSans-65" x="1233.822266"/>
      <use xlink:href="#DejaVuSans-73" x="1295.345703"/>
     </g>
    </g>
   </g>
  </g>
 </g>
 <defs>
  <clipPath id="pf2549e3bd5">
   <rect x="90" y="51.84" width="558" height="332.64"/>
  </clipPath>
 </defs>
</svg>
