<?xml version="1.0" encoding="UTF-8" standalone="no"?>
<!DOCTYPE svg PUBLIC "-//W3C//DTD SVG 1.1//EN"
 "http://www.w3.org/Graphics/SVG/1.1/DTD/svg11.dtd">
<!-- Generated by graphviz version 2.40.1 (20161225.0304)
 -->
<!-- Title: pwmled Pages: 1 -->
<svg width="1337pt" height="455pt"
 viewBox="0.00 0.00 1336.82 454.50" xmlns="http://www.w3.org/2000/svg" xmlns:xlink="http://www.w3.org/1999/xlink">
<g id="graph0" class="graph" transform="scale(1 1) rotate(0) translate(4 450.5)">
<title>pwmled</title>
<polygon fill="#ffffff" stroke="transparent" points="-4,4 -4,-450.5 1332.8229,-450.5 1332.8229,4 -4,4"/>
<text text-anchor="middle" x="664.4115" y="-7.8" font-family="Times,serif" font-size="14.00" fill="#000000">pwmled</text>
<!-- n1 -->
<g id="node1" class="node">
<title>n1</title>
<polygon fill="none" stroke="#000000" points="854.5855,-373 769.9605,-355 854.5855,-337 939.2105,-355 854.5855,-373"/>
<text text-anchor="middle" x="854.5855" y="-351.3" font-family="Times,serif" font-size="14.00" fill="#000000">pwmled.pwm</text>
</g>
<!-- c20 -->
<g id="node10" class="node">
<title>c20</title>
<polygon fill="none" stroke="#000000" points="975.148,-355 975.148,-401 1107.148,-401 1107.148,-355 975.148,-355"/>
<text text-anchor="middle" x="988.148" y="-385.8" font-family="Times,serif" font-size="14.00" fill="#000000">A</text>
<polyline fill="none" stroke="#000000" points="975.148,-378 1001.148,-378 "/>
<text text-anchor="middle" x="988.148" y="-362.8" font-family="Times,serif" font-size="14.00" fill="#000000">B</text>
<polyline fill="none" stroke="#000000" points="1001.148,-355 1001.148,-401 "/>
<text text-anchor="middle" x="1041.148" y="-381.8" font-family="Times,serif" font-size="14.00" fill="#000000">pwmled%8</text>
<text text-anchor="middle" x="1041.148" y="-366.8" font-family="Times,serif" font-size="14.00" fill="#000000">$xor</text>
<polyline fill="none" stroke="#000000" points="1081.148,-355 1081.148,-401 "/>
<text text-anchor="middle" x="1094.148" y="-374.3" font-family="Times,serif" font-size="14.00" fill="#000000">Y</text>
</g>
<!-- n1&#45;&gt;c20 -->
<g id="edge5" class="edge">
<title>n1:e&#45;&gt;c20:w</title>
<path fill="none" stroke="#000000" d="M939.148,-355C951.8264,-355 956.3553,-361.3171 965.0863,-364.3769"/>
<polygon fill="#000000" stroke="#000000" points="964.7182,-367.8627 975.148,-366 965.833,-360.952 964.7182,-367.8627"/>
</g>
<!-- n5 -->
<g id="node2" class="node">
<title>n5</title>
<polygon fill="none" stroke="#000000" points="96.5115,-281 -.0115,-263 96.5115,-245 193.0345,-263 96.5115,-281"/>
<text text-anchor="middle" x="96.5115" y="-259.3" font-family="Times,serif" font-size="14.00" fill="#000000">pwmled.counter</text>
</g>
<!-- c18 -->
<g id="node8" class="node">
<title>c18</title>
<polygon fill="none" stroke="#000000" points="229.023,-30 229.023,-76 367.023,-76 367.023,-30 229.023,-30"/>
<text text-anchor="middle" x="242.023" y="-60.8" font-family="Times,serif" font-size="14.00" fill="#000000">A</text>
<polyline fill="none" stroke="#000000" points="229.023,-53 255.023,-53 "/>
<text text-anchor="middle" x="242.023" y="-37.8" font-family="Times,serif" font-size="14.00" fill="#000000">B</text>
<polyline fill="none" stroke="#000000" points="255.023,-30 255.023,-76 "/>
<text text-anchor="middle" x="298.023" y="-56.8" font-family="Times,serif" font-size="14.00" fill="#000000">pwmled%13</text>
<text text-anchor="middle" x="298.023" y="-41.8" font-family="Times,serif" font-size="14.00" fill="#000000">$add</text>
<polyline fill="none" stroke="#000000" points="341.023,-30 341.023,-76 "/>
<text text-anchor="middle" x="354.023" y="-49.3" font-family="Times,serif" font-size="14.00" fill="#000000">Y</text>
</g>
<!-- n5&#45;&gt;c18 -->
<g id="edge10" class="edge">
<title>n5:e&#45;&gt;c18:w</title>
<path fill="none" stroke="#000000" stroke-width="3" d="M193.023,-263C278.6225,-263 151.4306,-81.6501 218.7433,-66.0653"/>
<polygon fill="#000000" stroke="#000000" stroke-width="3" points="219.4371,-69.5122 229.023,-65 218.7155,-62.5495 219.4371,-69.5122"/>
</g>
<!-- x1 -->
<g id="node11" class="node">
<title>x1</title>
<path fill="none" stroke="#000000" d="M641.523,-410C641.523,-410 694.523,-410 694.523,-410 700.523,-410 706.523,-416 706.523,-422 706.523,-422 706.523,-434 706.523,-434 706.523,-440 700.523,-446 694.523,-446 694.523,-446 641.523,-446 641.523,-446 635.523,-446 629.523,-440 629.523,-434 629.523,-434 629.523,-422 629.523,-422 629.523,-416 635.523,-410 641.523,-410"/>
<text text-anchor="middle" x="668.023" y="-424.3" font-family="Times,serif" font-size="14.00" fill="#000000">15:15 &#45; 0:0</text>
</g>
<!-- n5&#45;&gt;x1 -->
<g id="edge11" class="edge">
<title>n5:e&#45;&gt;x1:w</title>
<path fill="none" stroke="#000000" stroke-width="3" d="M193.023,-263C233.2324,-263 200.2129,-317.9507 229.023,-346 356.6379,-470.2449 444.2497,-429.5959 619.0166,-428.0447"/>
<polygon fill="#000000" stroke="#000000" stroke-width="3" points="619.0388,-431.5447 629.023,-428 619.0075,-424.5448 619.0388,-431.5447"/>
</g>
<!-- x4 -->
<g id="node16" class="node">
<title>x4</title>
<path fill="none" stroke="#000000" d="M275.023,-245C275.023,-245 321.023,-245 321.023,-245 327.023,-245 333.023,-251 333.023,-257 333.023,-257 333.023,-269 333.023,-269 333.023,-275 327.023,-281 321.023,-281 321.023,-281 275.023,-281 275.023,-281 269.023,-281 263.023,-275 263.023,-269 263.023,-269 263.023,-257 263.023,-257 263.023,-251 269.023,-245 275.023,-245"/>
<text text-anchor="middle" x="298.023" y="-259.3" font-family="Times,serif" font-size="14.00" fill="#000000">14:8 &#45; 6:0</text>
</g>
<!-- n5&#45;&gt;x4 -->
<g id="edge12" class="edge">
<title>n5:e&#45;&gt;x4:w</title>
<path fill="none" stroke="#000000" stroke-width="3" d="M193.023,-263C220.4883,-263 229.7686,-263 252.9717,-263"/>
<polygon fill="#000000" stroke="#000000" stroke-width="3" points="253.0231,-266.5001 263.023,-263 253.023,-259.5001 253.0231,-266.5001"/>
</g>
<!-- x5 -->
<g id="node17" class="node">
<title>x5</title>
<path fill="none" stroke="#000000" d="M278.523,-300C278.523,-300 317.523,-300 317.523,-300 323.523,-300 329.523,-306 329.523,-312 329.523,-312 329.523,-324 329.523,-324 329.523,-330 323.523,-336 317.523,-336 317.523,-336 278.523,-336 278.523,-336 272.523,-336 266.523,-330 266.523,-324 266.523,-324 266.523,-312 266.523,-312 266.523,-306 272.523,-300 278.523,-300"/>
<text text-anchor="middle" x="298.023" y="-314.3" font-family="Times,serif" font-size="14.00" fill="#000000">6:0 &#45; 6:0</text>
</g>
<!-- n5&#45;&gt;x5 -->
<g id="edge13" class="edge">
<title>n5:e&#45;&gt;x5:w</title>
<path fill="none" stroke="#000000" stroke-width="3" d="M193.023,-263C210.3192,-263 236.3656,-302.8837 256.2595,-314.7242"/>
<polygon fill="#000000" stroke="#000000" stroke-width="3" points="255.4291,-318.1373 266.023,-318 257.6557,-311.5008 255.4291,-318.1373"/>
</g>
<!-- n7 -->
<g id="node3" class="node">
<title>n7</title>
<polygon fill="none" stroke="#000000" points="1328.661,-370.5442 1328.661,-385.4558 1300.7333,-396 1261.2376,-396 1233.3099,-385.4558 1233.3099,-370.5442 1261.2376,-360 1300.7333,-360 1328.661,-370.5442"/>
<text text-anchor="middle" x="1280.9855" y="-374.3" font-family="Times,serif" font-size="14.00" fill="#000000">pwm_out</text>
</g>
<!-- n8 -->
<g id="node4" class="node">
<title>n8</title>
<polygon fill="none" stroke="#000000" points="123.5115,-199.5442 123.5115,-214.4558 107.6953,-225 85.3277,-225 69.5115,-214.4558 69.5115,-199.5442 85.3277,-189 107.6953,-189 123.5115,-199.5442"/>
<text text-anchor="middle" x="96.5115" y="-203.3" font-family="Times,serif" font-size="14.00" fill="#000000">rst</text>
</g>
<!-- c19 -->
<g id="node9" class="node">
<title>c19</title>
<polygon fill="none" stroke="#000000" points="232.023,-188 232.023,-226 364.023,-226 364.023,-188 232.023,-188"/>
<text text-anchor="middle" x="245.023" y="-203.3" font-family="Times,serif" font-size="14.00" fill="#000000">A</text>
<polyline fill="none" stroke="#000000" points="258.023,-188 258.023,-226 "/>
<text text-anchor="middle" x="298.023" y="-210.8" font-family="Times,serif" font-size="14.00" fill="#000000">pwmled%9</text>
<text text-anchor="middle" x="298.023" y="-195.8" font-family="Times,serif" font-size="14.00" fill="#000000">$not</text>
<polyline fill="none" stroke="#000000" points="338.023,-188 338.023,-226 "/>
<text text-anchor="middle" x="351.023" y="-203.3" font-family="Times,serif" font-size="14.00" fill="#000000">Y</text>
</g>
<!-- n8&#45;&gt;c19 -->
<g id="edge16" class="edge">
<title>n8:e&#45;&gt;c19:w</title>
<path fill="none" stroke="#000000" d="M123.5115,-207C168.1595,-207 181.8068,-207 221.8531,-207"/>
<polygon fill="#000000" stroke="#000000" points="222.0231,-210.5001 232.023,-207 222.023,-203.5001 222.0231,-210.5001"/>
</g>
<!-- n9 -->
<g id="node5" class="node">
<title>n9</title>
<polygon fill="none" stroke="#000000" points="325.023,-105.5442 325.023,-120.4558 309.2068,-131 286.8393,-131 271.023,-120.4558 271.023,-105.5442 286.8393,-95 309.2068,-95 325.023,-105.5442"/>
<text text-anchor="middle" x="298.023" y="-109.3" font-family="Times,serif" font-size="14.00" fill="#000000">clk</text>
</g>
<!-- c14 -->
<g id="node6" class="node">
<title>c14</title>
<polygon fill="none" stroke="#000000" points="403.023,-101.5 403.023,-170.5 566.023,-170.5 566.023,-101.5 403.023,-101.5"/>
<text text-anchor="middle" x="428.523" y="-155.3" font-family="Times,serif" font-size="14.00" fill="#000000">ARST</text>
<polyline fill="none" stroke="#000000" points="403.023,-147.5 454.023,-147.5 "/>
<text text-anchor="middle" x="428.523" y="-132.3" font-family="Times,serif" font-size="14.00" fill="#000000">CLK</text>
<polyline fill="none" stroke="#000000" points="403.023,-124.5 454.023,-124.5 "/>
<text text-anchor="middle" x="428.523" y="-109.3" font-family="Times,serif" font-size="14.00" fill="#000000">D</text>
<polyline fill="none" stroke="#000000" points="454.023,-101.5 454.023,-170.5 "/>
<text text-anchor="middle" x="497.023" y="-139.8" font-family="Times,serif" font-size="14.00" fill="#000000">pwmled%16</text>
<text text-anchor="middle" x="497.023" y="-124.8" font-family="Times,serif" font-size="14.00" fill="#000000">$adff</text>
<polyline fill="none" stroke="#000000" points="540.023,-101.5 540.023,-170.5 "/>
<text text-anchor="middle" x="553.023" y="-132.3" font-family="Times,serif" font-size="14.00" fill="#000000">Q</text>
</g>
<!-- n9&#45;&gt;c14 -->
<g id="edge17" class="edge">
<title>n9:e&#45;&gt;c14:w</title>
<path fill="none" stroke="#000000" d="M325.023,-113C357.4947,-113 365.4059,-131.5654 392.8887,-135.3365"/>
<polygon fill="#000000" stroke="#000000" points="392.8157,-138.8391 403.023,-136 393.2731,-131.854 392.8157,-138.8391"/>
</g>
<!-- c14&#45;&gt;n5 -->
<g id="edge9" class="edge">
<title>c14:e&#45;&gt;n5:w</title>
<path fill="none" stroke="#000000" stroke-width="3" d="M566.523,-136C582.0786,-136 577.4078,-159.8871 566.523,-171 461.5399,-278.1831 350.461,-89.8949 229.023,-178 189.7719,-206.4773 232.5673,-252.9312 193.023,-281 193.023,-281 49.4595,-267.646 9.6431,-263.9424"/>
<polygon fill="#000000" stroke="#000000" stroke-width="3" points="9.7927,-260.4413 -.4885,-263 9.1443,-267.4112 9.7927,-260.4413"/>
</g>
<!-- v0 -->
<g id="node7" class="node">
<title>v0</title>
<ellipse fill="none" stroke="#000000" cx="96.5115" cy="-41" rx="90.9839" ry="18"/>
<text text-anchor="middle" x="96.5115" y="-37.3" font-family="Times,serif" font-size="14.00" fill="#000000">16&#39;0000000000000001</text>
</g>
<!-- v0&#45;&gt;c18 -->
<g id="edge18" class="edge">
<title>v0:e&#45;&gt;c18:w</title>
<path fill="none" stroke="#000000" stroke-width="3" d="M187.5115,-41C202.0694,-41 208.0119,-41 218.9352,-41"/>
<polygon fill="#000000" stroke="#000000" stroke-width="3" points="219.0231,-44.5001 229.023,-41 219.023,-37.5001 219.0231,-44.5001"/>
</g>
<!-- c18&#45;&gt;c14 -->
<g id="edge6" class="edge">
<title>c18:e&#45;&gt;c14:w</title>
<path fill="none" stroke="#000000" stroke-width="3" d="M367.023,-53C393.9912,-53 377.8725,-98.1208 393.3957,-110.1061"/>
<polygon fill="#000000" stroke="#000000" stroke-width="3" points="392.4388,-113.4731 403.023,-113 394.4539,-106.7694 392.4388,-113.4731"/>
</g>
<!-- c19&#45;&gt;c14 -->
<g id="edge7" class="edge">
<title>c19:e&#45;&gt;c14:w</title>
<path fill="none" stroke="#000000" d="M364.023,-207C387.4302,-207 379.3205,-172.1924 393.3712,-161.8589"/>
<polygon fill="#000000" stroke="#000000" points="394.4288,-165.196 403.023,-159 392.4408,-158.4842 394.4288,-165.196"/>
</g>
<!-- x6 -->
<g id="node18" class="node">
<title>x6</title>
<path fill="none" stroke="#000000" d="M1185.148,-396C1185.148,-396 1155.148,-396 1155.148,-396 1149.148,-396 1143.148,-390 1143.148,-384 1143.148,-384 1143.148,-372 1143.148,-372 1143.148,-366 1149.148,-360 1155.148,-360 1155.148,-360 1185.148,-360 1185.148,-360 1191.148,-360 1197.148,-366 1197.148,-372 1197.148,-372 1197.148,-384 1197.148,-384 1197.148,-390 1191.148,-396 1185.148,-396"/>
<text text-anchor="middle" x="1170.148" y="-374.3" font-family="Times,serif" font-size="14.00" fill="#000000">BUF</text>
</g>
<!-- c20&#45;&gt;x6 -->
<g id="edge8" class="edge">
<title>c20:e&#45;&gt;x6:w</title>
<path fill="none" stroke="#000000" d="M1107.148,-378C1119.148,-378 1124.398,-378 1133.023,-378"/>
<polygon fill="#000000" stroke="#000000" points="1133.148,-381.5001 1143.148,-378 1133.1479,-374.5001 1133.148,-381.5001"/>
</g>
<!-- x1&#45;&gt;c20 -->
<g id="edge1" class="edge">
<title>x1:e&#45;&gt;c20:w</title>
<path fill="none" stroke="#000000" d="M719.046,-427.8699C825.3768,-425.5343 856.664,-392.5185 962.879,-390.1356"/>
<polygon fill="none" stroke="#000000" points="719.0223,-427.87 713.066,-431.9348 707.023,-428 712.9793,-423.9352 719.0223,-427.87"/>
<polygon fill="none" stroke="#000000" points="963.1487,-390.1327 969.1041,-386.0666 975.148,-390 969.1926,-394.0661 963.1487,-390.1327"/>
</g>
<!-- v2 -->
<g id="node12" class="node">
<title>v2</title>
<ellipse fill="none" stroke="#000000" cx="484.523" cy="-335" rx="27" ry="18"/>
<text text-anchor="middle" x="484.523" y="-331.3" font-family="Times,serif" font-size="14.00" fill="#000000">1&#39;1</text>
</g>
<!-- c22 -->
<g id="node14" class="node">
<title>c22</title>
<polygon fill="none" stroke="#000000" points="602.023,-307.5 602.023,-376.5 734.023,-376.5 734.023,-307.5 602.023,-307.5"/>
<text text-anchor="middle" x="615.023" y="-361.3" font-family="Times,serif" font-size="14.00" fill="#000000">A</text>
<polyline fill="none" stroke="#000000" points="602.023,-353.5 628.023,-353.5 "/>
<text text-anchor="middle" x="615.023" y="-338.3" font-family="Times,serif" font-size="14.00" fill="#000000">B</text>
<polyline fill="none" stroke="#000000" points="602.023,-330.5 628.023,-330.5 "/>
<text text-anchor="middle" x="615.023" y="-315.3" font-family="Times,serif" font-size="14.00" fill="#000000">S</text>
<polyline fill="none" stroke="#000000" points="628.023,-307.5 628.023,-376.5 "/>
<text text-anchor="middle" x="668.023" y="-345.8" font-family="Times,serif" font-size="14.00" fill="#000000">pwmled%6</text>
<text text-anchor="middle" x="668.023" y="-330.8" font-family="Times,serif" font-size="14.00" fill="#000000">$mux</text>
<polyline fill="none" stroke="#000000" points="708.023,-307.5 708.023,-376.5 "/>
<text text-anchor="middle" x="721.023" y="-338.3" font-family="Times,serif" font-size="14.00" fill="#000000">Y</text>
</g>
<!-- v2&#45;&gt;c22 -->
<g id="edge19" class="edge">
<title>v2:e&#45;&gt;c22:w</title>
<path fill="none" stroke="#000000" d="M511.523,-335C548.2409,-335 559.6706,-340.7987 591.8445,-341.8406"/>
<polygon fill="#000000" stroke="#000000" points="591.9694,-345.3429 602.023,-342 592.0791,-338.3438 591.9694,-345.3429"/>
</g>
<!-- v3 -->
<g id="node13" class="node">
<title>v3</title>
<ellipse fill="none" stroke="#000000" cx="484.523" cy="-389" rx="27" ry="18"/>
<text text-anchor="middle" x="484.523" y="-385.3" font-family="Times,serif" font-size="14.00" fill="#000000">1&#39;0</text>
</g>
<!-- v3&#45;&gt;c22 -->
<g id="edge20" class="edge">
<title>v3:e&#45;&gt;c22:w</title>
<path fill="none" stroke="#000000" d="M511.523,-389C549.5595,-389 558.9065,-368.9478 592.012,-365.5013"/>
<polygon fill="#000000" stroke="#000000" points="592.2106,-368.9958 602.023,-365 591.8605,-362.0046 592.2106,-368.9958"/>
</g>
<!-- c22&#45;&gt;n1 -->
<g id="edge4" class="edge">
<title>c22:e&#45;&gt;n1:w</title>
<path fill="none" stroke="#000000" d="M734.023,-342C747.0473,-342 751.259,-349.6204 760.1524,-353.1924"/>
<polygon fill="#000000" stroke="#000000" points="759.5561,-356.6413 770.023,-355 760.8171,-349.7558 759.5561,-356.6413"/>
</g>
<!-- c23 -->
<g id="node15" class="node">
<title>c23</title>
<polygon fill="none" stroke="#000000" points="418.523,-252 418.523,-298 550.523,-298 550.523,-252 418.523,-252"/>
<text text-anchor="middle" x="431.523" y="-282.8" font-family="Times,serif" font-size="14.00" fill="#000000">A</text>
<polyline fill="none" stroke="#000000" points="418.523,-275 444.523,-275 "/>
<text text-anchor="middle" x="431.523" y="-259.8" font-family="Times,serif" font-size="14.00" fill="#000000">B</text>
<polyline fill="none" stroke="#000000" points="444.523,-252 444.523,-298 "/>
<text text-anchor="middle" x="484.523" y="-278.8" font-family="Times,serif" font-size="14.00" fill="#000000">pwmled%3</text>
<text text-anchor="middle" x="484.523" y="-263.8" font-family="Times,serif" font-size="14.00" fill="#000000">$lt</text>
<polyline fill="none" stroke="#000000" points="524.523,-252 524.523,-298 "/>
<text text-anchor="middle" x="537.523" y="-271.3" font-family="Times,serif" font-size="14.00" fill="#000000">Y</text>
</g>
<!-- c23&#45;&gt;c22 -->
<g id="edge14" class="edge">
<title>c23:e&#45;&gt;c22:w</title>
<path fill="none" stroke="#000000" d="M550.523,-275C576.6298,-275 573.5469,-308.0886 591.9001,-316.8778"/>
<polygon fill="#000000" stroke="#000000" points="591.5176,-320.3736 602.023,-319 592.954,-313.5225 591.5176,-320.3736"/>
</g>
<!-- x4&#45;&gt;c23 -->
<g id="edge2" class="edge">
<title>x4:e&#45;&gt;c23:w</title>
<path fill="none" stroke="#000000" stroke-width="3" d="M345.3,-263C369.8769,-263 381.6653,-263 406.2402,-263"/>
<polygon fill="none" stroke="#000000" stroke-width="3" points="345.023,-263.0001 339.023,-267 333.023,-263 339.0231,-259 345.023,-263.0001"/>
<polygon fill="none" stroke="#000000" stroke-width="3" points="406.523,-263.0001 412.523,-259 418.523,-263 412.5231,-267 406.523,-263.0001"/>
</g>
<!-- x5&#45;&gt;c23 -->
<g id="edge3" class="edge">
<title>x5:e&#45;&gt;c23:w</title>
<path fill="none" stroke="#000000" stroke-width="3" d="M342.0764,-317.0382C369.5453,-312.419 379.0385,-292.5451 406.5365,-287.9505"/>
<polygon fill="none" stroke="#000000" stroke-width="3" points="341.985,-317.0454 336.3222,-321.51 330.023,-318 335.6858,-313.5354 341.985,-317.0454"/>
<polygon fill="none" stroke="#000000" stroke-width="3" points="406.5606,-287.9487 412.2256,-283.4869 418.523,-287 412.858,-291.4618 406.5606,-287.9487"/>
</g>
<!-- x6&#45;&gt;n7 -->
<g id="edge15" class="edge">
<title>x6:e&#45;&gt;n7:w</title>
<path fill="none" stroke="#000000" d="M1197.148,-378C1209.148,-378 1214.398,-378 1223.023,-378"/>
<polygon fill="#000000" stroke="#000000" points="1223.148,-381.5001 1233.148,-378 1223.1479,-374.5001 1223.148,-381.5001"/>
</g>
</g>
</svg>
